# Blender v2.69 (sub 0) OBJ File: 'ship_split.blend'
# www.blender.org
mtllib ship.mtl
v -0.803124 2.658861 0.115919
v 0.838697 2.642421 0.116567
v -0.804411 2.608819 0.144820
v 0.837424 2.592940 0.145145
v -0.804411 2.608819 0.202623
v 0.837424 2.592940 0.202299
v -0.803124 2.658861 0.231525
v 0.838697 2.642421 0.230876
v -0.801836 2.708903 0.202623
v 0.839970 2.691902 0.202299
v -0.801836 2.708903 0.144820
v 0.839970 2.691902 0.145145
v -0.015844 2.602863 0.052086
v -0.018553 2.497558 0.112904
v -0.018553 2.497558 0.234540
v -0.015844 2.602863 0.295358
v -0.013134 2.708168 0.234540
v -0.013134 2.708168 0.112904
v -0.414190 2.447947 0.102272
v -0.414190 2.447947 0.245171
v -0.411007 2.571660 0.316621
v -0.407824 2.695374 0.245171
v -0.407824 2.695374 0.102272
v -0.411007 2.571660 0.030822
v 0.409873 2.562269 0.035027
v 0.406783 2.442196 0.104374
v 0.406783 2.442196 0.243069
v 0.409873 2.562269 0.312416
v 0.412963 2.682343 0.243069
v 0.412963 2.682343 0.104374
vn 0.075747 -0.042207 -0.996216
vn 0.675069 0.035707 -0.736869
vn 0.099734 -0.871334 -0.480422
vn 0.724754 -0.588427 -0.358348
vn 0.099734 -0.871334 0.480422
vn 0.724754 -0.588427 0.358348
vn 0.675069 0.035707 0.736869
vn 0.075747 -0.042207 0.996216
vn 0.628559 0.682791 0.372387
vn 0.036714 0.853847 -0.519211
vn 0.628559 0.682791 -0.372387
vn 0.036714 0.853847 0.519211
vn -0.608234 0.703116 -0.368267
vn -0.682058 0.066042 0.728263
vn -0.608234 0.703116 0.368267
vn -0.080203 -0.040895 -0.995911
vn 0.006745 0.028077 -0.999573
vn -0.126591 -0.868038 -0.480056
vn 0.000519 -0.858669 -0.512467
vn -0.126591 -0.868038 0.480056
vn 0.000519 -0.858669 0.512467
vn 0.006745 0.028077 0.999573
vn -0.080203 -0.040895 0.995911
vn 0.013916 0.872646 0.488083
vn -0.020631 0.854030 -0.519761
vn 0.013916 0.872646 -0.488083
vn -0.020631 0.854030 0.519761
vn -0.682058 0.066042 -0.728263
vn -0.757012 -0.548631 -0.354808
vn -0.757012 -0.548631 0.354808
g Cylinder.044_Cylinder.011_SailCloth
usemtl SailCloth
s 1
f 25//1 2//2 26//3
f 26//3 4//4 27//5
f 27//5 6//6 8//7
f 28//8 8//7 10//9
f 4//4 2//2 6//6
f 30//10 12//11 25//1
f 29//12 10//9 30//10
f 11//13 7//14 9//15
f 24//16 13//17 19//18
f 19//18 14//19 20//20
f 20//20 15//21 16//22
f 21//23 16//22 17//24
f 23//25 18//26 24//16
f 22//27 17//24 23//25
f 1//28 24//16 19//18
f 3//29 19//18 5//30
f 5//30 20//20 7//14
f 7//14 21//23 9//15
f 11//13 23//25 24//16
f 9//15 22//27 11//13
f 13//17 25//1 26//3
f 14//19 26//3 15//21
f 15//21 27//5 16//22
f 16//22 28//8 17//24
f 18//26 30//10 25//1
f 17//24 29//12 18//26
f 2//2 4//4 26//3
f 4//4 6//6 27//5
f 28//8 27//5 8//7
f 29//12 28//8 10//9
f 6//6 2//2 8//7
f 2//2 12//11 8//7
f 12//11 10//9 8//7
f 12//11 2//2 25//1
f 10//9 12//11 30//10
f 11//13 1//28 7//14
f 1//28 3//29 7//14
f 3//29 5//30 7//14
f 13//17 14//19 19//18
f 14//19 15//21 20//20
f 21//23 20//20 16//22
f 22//27 21//23 17//24
f 18//26 13//17 24//16
f 17//24 18//26 23//25
f 3//29 1//28 19//18
f 19//18 20//20 5//30
f 20//20 21//23 7//14
f 21//23 22//27 9//15
f 1//28 11//13 24//16
f 22//27 23//25 11//13
f 14//19 13//17 26//3
f 26//3 27//5 15//21
f 27//5 28//8 16//22
f 28//8 29//12 17//24
f 13//17 18//26 25//1
f 29//12 30//10 18//26
v -0.016335 0.010588 0.079770
v -0.016335 4.602924 0.041620
v -0.088669 0.010588 0.027217
v -0.052386 4.602924 0.015428
v -0.061040 0.010588 -0.057816
v -0.038616 4.602924 -0.026952
v 0.028369 0.010588 -0.057816
v 0.005945 4.602924 -0.026952
v 0.055998 0.010588 0.027217
v 0.019715 4.602924 0.015428
vn 0.000000 -0.592578 0.805506
vn 0.000000 0.598773 0.800867
vn -0.766076 -0.592578 0.248909
vn -0.761681 0.598773 0.247475
vn -0.473464 -0.592578 -0.651662
vn -0.470748 0.598804 -0.647908
vn 0.473464 -0.592578 -0.651662
vn 0.761681 0.598773 0.247475
vn 0.470748 0.598804 -0.647908
vn 0.766076 -0.592578 0.248909
g Cylinder.041_Cylinder_Wood
usemtl Wood
s 1
f 31//31 32//32 33//33
f 33//33 34//34 35//35
f 35//35 36//36 37//37
f 32//32 40//38 38//39
f 39//40 40//38 31//31
f 37//37 38//39 39//40
f 31//31 33//33 35//35
f 32//32 34//34 33//33
f 34//34 36//36 35//35
f 36//36 38//39 37//37
f 34//34 32//32 36//36
f 32//32 38//39 36//36
f 40//38 32//32 31//31
f 38//39 40//38 39//40
f 39//40 31//31 37//37
f 31//31 35//35 37//37
v 0.844669 2.757028 0.141437
v -0.819321 2.757028 0.141436
v 0.844669 2.700892 0.100652
v -0.819321 2.700892 0.100651
v 0.844669 2.722334 0.034660
v -0.819321 2.722334 0.034660
v 0.844669 2.791721 0.034660
v -0.819321 2.791722 0.034660
v 0.844669 2.813164 0.100652
v -0.819321 2.813164 0.100651
vn 0.595691 0.000000 0.803186
vn -0.595691 0.000000 0.803186
vn 0.595691 -0.763878 0.248177
vn -0.595691 -0.763878 0.248177
vn 0.595691 -0.472091 -0.649800
vn -0.595691 -0.472091 -0.649800
vn 0.595691 0.472091 -0.649800
vn 0.595691 0.763878 0.248177
vn -0.595691 0.763878 0.248207
vn -0.595691 0.472091 -0.649800
g Cylinder.042_Cylinder.001_Wood
usemtl Wood
s 1
f 41//41 42//42 43//43
f 43//43 44//44 45//45
f 45//45 46//46 47//47
f 44//44 42//42 46//46
f 49//48 50//49 41//41
f 47//47 48//50 49//48
f 49//48 41//41 47//47
f 42//42 44//44 43//43
f 44//44 46//46 45//45
f 46//46 48//50 47//47
f 42//42 50//49 48//50
f 46//46 42//42 48//50
f 50//49 42//42 41//41
f 48//50 50//49 49//48
f 41//41 43//43 45//45
f 47//47 41//41 45//45
v 0.684294 4.154168 0.103332
v -0.654973 4.154168 0.103332
v 0.684294 4.108987 0.070506
v -0.654973 4.108987 0.070506
v 0.684294 4.126245 0.017392
v -0.654973 4.126245 0.017392
v 0.684294 4.182092 0.017392
v -0.654973 4.182092 0.017392
v 0.684294 4.199349 0.070506
v -0.654973 4.199349 0.070506
vn 0.595691 0.000000 0.803186
vn -0.595691 0.000000 0.803186
vn 0.595691 -0.763878 0.248207
vn -0.595691 -0.763878 0.248207
vn 0.595691 -0.472091 -0.649800
vn -0.595691 -0.472091 -0.649800
vn 0.595691 0.472091 -0.649800
vn 0.595691 0.763878 0.248177
vn -0.595691 0.763878 0.248207
vn -0.595691 0.472091 -0.649800
g Cylinder.043_Cylinder.001_Wood
usemtl Wood
s 1
f 51//51 52//52 53//53
f 53//53 54//54 55//55
f 55//55 56//56 57//57
f 54//54 52//52 56//56
f 59//58 60//59 51//51
f 57//57 58//60 59//58
f 51//51 53//53 55//55
f 52//52 54//54 53//53
f 54//54 56//56 55//55
f 56//56 58//60 57//57
f 52//52 60//59 56//56
f 60//59 58//60 56//56
f 60//59 52//52 51//51
f 58//60 60//59 59//58
f 59//58 51//51 55//55
f 57//57 59//58 55//55
v -0.739377 2.939044 0.057438
v 0.754191 2.939044 0.057439
v -0.620858 4.104882 0.064852
v 0.635672 4.104882 0.064852
v 0.007407 3.050226 0.096968
v 0.007407 4.104882 0.084703
v 0.694932 3.586331 0.250122
v -0.680118 3.586331 0.250122
v 0.007407 3.586331 0.355977
v 0.380799 3.035330 0.057439
v 0.321540 4.104882 0.087476
v 0.724562 3.286164 0.184806
v -0.650488 3.869082 0.202907
v -0.365985 3.035330 0.057438
v -0.306725 4.104882 0.087476
v 0.665302 3.869082 0.202907
v -0.709747 3.286164 0.184805
v 0.007407 3.869141 0.326642
v 0.007407 3.373493 0.314299
v 0.351169 3.586331 0.337703
v -0.336355 3.586331 0.337703
v -0.321540 3.869126 0.308652
v 0.336354 3.869126 0.308652
v 0.365984 3.355249 0.275949
v -0.351170 3.355249 0.275949
v -0.739377 2.939044 0.057438
v 0.754191 2.939044 0.057439
v -0.620858 4.104882 0.064852
v 0.635672 4.104882 0.064852
v 0.007407 3.050226 0.096968
v 0.007407 4.104882 0.084703
v 0.694932 3.586331 0.250122
v -0.680118 3.586331 0.250122
v 0.007407 3.586331 0.355977
v 0.380799 3.035330 0.057439
v 0.321540 4.104882 0.087476
v 0.724562 3.286164 0.184806
v -0.650488 3.869082 0.202907
v -0.365985 3.035330 0.057438
v -0.306725 4.104882 0.087476
v 0.665302 3.869082 0.202907
v -0.709747 3.286164 0.184805
v 0.007407 3.869141 0.326642
v 0.007407 3.373493 0.314299
v 0.351169 3.586331 0.337703
v -0.336355 3.586331 0.337703
v -0.321540 3.869126 0.308652
v 0.336354 3.869126 0.308652
v 0.365984 3.355249 0.275949
v -0.351170 3.355249 0.275949
vn 0.127567 -0.402722 -0.906369
vn 0.286115 -0.355295 -0.889890
vn 0.163814 -0.600995 -0.782285
vn -0.127567 -0.402722 -0.906369
vn 0.000000 -0.431532 -0.902066
vn 0.000000 -0.700463 -0.713689
vn -0.093051 0.375317 -0.922178
vn 0.000000 0.373669 -0.927549
vn 0.000000 0.056673 -0.998383
vn 0.093051 0.375317 -0.922178
vn 0.194065 0.279166 -0.940428
vn 0.142979 0.064669 -0.987579
vn 0.262377 0.025519 -0.964628
vn -0.286115 -0.355295 -0.889890
vn -0.163814 -0.600995 -0.782285
vn -0.262376 0.025519 -0.964628
vn -0.142979 0.064669 -0.987579
vn -0.194065 0.279166 -0.940428
vn -0.009025 0.458207 -0.888799
vn 0.053446 0.563964 -0.824068
vn 0.000000 0.557931 -0.829887
vn -0.053446 0.563964 -0.824068
vn 0.009025 0.458207 -0.888799
vn -0.022512 0.684773 0.728408
vn -0.163814 0.600995 0.782285
vn -0.127567 0.402722 0.906369
vn 0.022512 0.684773 0.728408
vn -0.000000 0.700463 0.713689
vn 0.127567 0.402722 0.906369
vn 0.142979 -0.064669 0.987579
vn 0.000000 -0.056673 0.998383
vn 0.093051 -0.375317 0.922178
vn -0.142979 -0.064669 0.987579
vn -0.262377 -0.025519 0.964628
vn -0.194065 -0.279166 0.940428
vn 0.000000 0.431532 0.902066
vn -0.286115 0.355295 0.889890
vn 0.163814 0.600995 0.782285
vn 0.286115 0.355295 0.889890
vn 0.262376 -0.025519 0.964628
vn 0.194065 -0.279166 0.940428
vn 0.009025 -0.458207 0.888800
vn 0.000000 -0.373669 0.927549
vn -0.053446 -0.563964 0.824068
vn -0.093051 -0.375317 0.922178
vn 0.053446 -0.563964 0.824068
vn -0.009025 -0.458207 0.888800
vn 0.022512 -0.684773 -0.728408
vn -0.022512 -0.684773 -0.728408
vn -0.000000 -0.557931 0.829887
g Plane.011_Plane.001_SailCloth
usemtl SailCloth
s 1
f 82//61 73//62 63//63
f 83//64 78//65 66//66
f 84//67 79//68 69//69
f 85//70 77//71 81//72
f 78//65 82//61 66//66
f 69//69 81//72 78//65
f 81//72 68//73 82//61
f 76//74 83//64 64//75
f 67//76 80//77 83//64
f 80//77 69//69 78//65
f 72//78 84//67 80//77
f 62//79 70//80 84//67
f 70//80 65//81 79//68
f 79//68 85//70 69//69
f 65//81 74//82 79//68
f 74//82 61//83 85//70
f 100//84 88//85 107//86
f 96//87 91//88 108//89
f 105//90 94//91 109//92
f 106//93 93//94 102//95
f 91//88 100//84 107//86
f 103//96 107//86 106//93
f 107//86 98//97 93//94
f 89//98 96//87 108//89
f 101//99 108//89 92//100
f 108//89 103//96 105//90
f 92//100 105//90 97//101
f 97//101 109//92 87//102
f 109//92 104//103 95//104
f 94//91 106//93 110//105
f 104//103 110//105 99//106
f 110//105 102//95 86//107
f 75//108 82//61 63//63
f 71//109 83//64 66//66
f 80//77 84//67 69//69
f 77//71 68//73 81//72
f 82//61 75//108 66//66
f 81//72 82//61 78//65
f 68//73 73//62 82//61
f 83//64 71//109 64//75
f 76//74 67//76 83//64
f 83//64 80//77 78//65
f 67//76 72//78 80//77
f 72//78 62//79 84//67
f 84//67 70//80 79//68
f 85//70 81//72 69//69
f 74//82 85//70 79//68
f 61//83 77//71 85//70
f 88//85 98//97 107//86
f 91//88 103//96 108//89
f 94//91 104//103 109//92
f 110//105 106//93 102//95
f 103//96 91//88 107//86
f 94//91 103//96 106//93
f 106//93 107//86 93//94
f 101//99 89//98 108//89
f 108//89 105//90 92//100
f 103//96 94//91 105//90
f 105//90 109//92 97//101
f 109//92 95//104 87//102
f 104//103 90//110 95//104
f 104//103 94//91 110//105
f 90//110 104//103 99//106
f 99//106 110//105 86//107
