# Blender v2.69 (sub 0) OBJ File: 'ship_split.blend'
# www.blender.org
mtllib ship.mtl
v -0.672950 4.050818 0.125491
v 0.696982 4.037101 0.126032
v -0.674024 4.009063 0.149607
v 0.695920 3.995814 0.149877
v -0.674024 4.009063 0.197837
v 0.695920 3.995814 0.197567
v -0.672950 4.050818 0.221952
v 0.696982 4.037101 0.221411
v -0.671875 4.092573 0.197837
v 0.698045 4.078388 0.197567
v -0.671875 4.092573 0.149607
v 0.698045 4.078388 0.149877
v -0.016045 4.004094 0.072229
v -0.018306 3.916227 0.122975
v -0.018306 3.916227 0.224468
v -0.016045 4.004094 0.275215
v -0.013784 4.091960 0.224468
v -0.013784 4.091960 0.122975
v -0.348424 3.874832 0.114104
v -0.348424 3.874832 0.233339
v -0.345768 3.978058 0.292957
v -0.343112 4.081285 0.233339
v -0.343112 4.081285 0.114104
v -0.345768 3.978058 0.054487
v 0.339173 3.970222 0.057995
v 0.336595 3.870034 0.115858
v 0.336595 3.870034 0.231585
v 0.339173 3.970222 0.289448
v 0.341751 4.070412 0.231585
v 0.341751 4.070412 0.115858
vn 0.075747 -0.042207 -0.996216
vn 0.675069 0.035676 -0.736869
vn 0.099734 -0.871334 -0.480422
vn 0.724754 -0.588427 -0.358348
vn 0.099734 -0.871334 0.480422
vn 0.724784 -0.588427 0.358348
vn 0.675069 0.035676 0.736869
vn 0.075747 -0.042207 0.996216
vn 0.628559 0.682791 0.372387
vn 0.628559 0.682791 -0.372387
vn 0.036714 0.853847 -0.519211
vn 0.036714 0.853847 0.519211
vn -0.608234 0.703116 -0.368267
vn -0.682058 0.066042 0.728263
vn -0.608234 0.703116 0.368267
vn -0.080203 -0.040895 -0.995911
vn 0.006745 0.028077 -0.999573
vn -0.126591 -0.868038 -0.480056
vn 0.000519 -0.858669 -0.512467
vn -0.126591 -0.868038 0.480056
vn 0.000519 -0.858669 0.512467
vn 0.006745 0.028077 0.999573
vn -0.080203 -0.040895 0.995911
vn 0.013916 0.872646 0.488083
vn -0.020631 0.854030 -0.519761
vn 0.013916 0.872646 -0.488083
vn -0.020631 0.854030 0.519761
vn -0.682058 0.066042 -0.728263
vn -0.757012 -0.548631 -0.354808
vn -0.757012 -0.548631 0.354808
g Cylinder.054_Cylinder.011_SailCloth
usemtl SailCloth
s 1
f 25//1 2//2 26//3
f 26//3 4//4 27//5
f 27//5 6//6 8//7
f 28//8 8//7 10//9
f 2//2 12//10 10//9
f 30//11 12//10 25//1
f 29//12 10//9 30//11
f 11//13 7//14 9//15
f 24//16 13//17 19//18
f 19//18 14//19 20//20
f 20//20 15//21 16//22
f 21//23 16//22 17//24
f 23//25 18//26 24//16
f 22//27 17//24 23//25
f 1//28 24//16 19//18
f 3//29 19//18 5//30
f 5//30 20//20 7//14
f 7//14 21//23 9//15
f 11//13 23//25 24//16
f 9//15 22//27 11//13
f 13//17 25//1 26//3
f 14//19 26//3 15//21
f 15//21 27//5 16//22
f 16//22 28//8 17//24
f 18//26 30//11 25//1
f 17//24 29//12 18//26
f 2//2 4//4 26//3
f 4//4 6//6 27//5
f 28//8 27//5 8//7
f 29//12 28//8 10//9
f 2//2 10//9 8//7
f 4//4 2//2 6//6
f 2//2 8//7 6//6
f 12//10 2//2 25//1
f 10//9 12//10 30//11
f 11//13 1//28 7//14
f 1//28 3//29 7//14
f 3//29 5//30 7//14
f 13//17 14//19 19//18
f 14//19 15//21 20//20
f 21//23 20//20 16//22
f 22//27 21//23 17//24
f 18//26 13//17 24//16
f 17//24 18//26 23//25
f 3//29 1//28 19//18
f 19//18 20//20 5//30
f 20//20 21//23 7//14
f 21//23 22//27 9//15
f 1//28 11//13 24//16
f 22//27 23//25 11//13
f 14//19 13//17 26//3
f 26//3 27//5 15//21
f 27//5 28//8 16//22
f 28//8 29//12 17//24
f 13//17 18//26 25//1
f 29//12 30//11 18//26
v -0.803124 2.658861 0.115919
v 0.838697 2.642421 0.116567
v -0.804411 2.608819 0.144820
v 0.837424 2.592940 0.145145
v -0.804411 2.608819 0.202623
v 0.837424 2.592940 0.202299
v -0.803124 2.658861 0.231525
v 0.838697 2.642421 0.230876
v -0.801836 2.708903 0.202623
v 0.839970 2.691902 0.202299
v -0.801836 2.708903 0.144820
v 0.839970 2.691902 0.145145
v -0.015844 2.602863 0.052086
v -0.018553 2.497558 0.112904
v -0.018553 2.497558 0.234540
v -0.015844 2.602863 0.295358
v -0.013134 2.708168 0.234540
v -0.013134 2.708168 0.112904
v -0.414190 2.447947 0.102272
v -0.414190 2.447947 0.245171
v -0.411007 2.571660 0.316621
v -0.407824 2.695374 0.245171
v -0.407824 2.695374 0.102272
v -0.411007 2.571660 0.030822
v 0.409873 2.562269 0.035027
v 0.406783 2.442196 0.104374
v 0.406783 2.442196 0.243069
v 0.409873 2.562269 0.312416
v 0.412963 2.682343 0.243069
v 0.412963 2.682343 0.104374
vn 0.075747 -0.042207 -0.996216
vn 0.675069 0.035707 -0.736869
vn 0.099734 -0.871334 -0.480422
vn 0.724754 -0.588427 -0.358348
vn 0.099734 -0.871334 0.480422
vn 0.724754 -0.588427 0.358348
vn 0.675069 0.035707 0.736869
vn 0.075747 -0.042207 0.996216
vn 0.628559 0.682791 0.372387
vn 0.036714 0.853847 -0.519211
vn 0.628559 0.682791 -0.372387
vn 0.036714 0.853847 0.519211
vn -0.608234 0.703116 -0.368267
vn -0.682058 0.066042 0.728263
vn -0.608234 0.703116 0.368267
vn -0.080203 -0.040895 -0.995911
vn 0.006745 0.028077 -0.999573
vn -0.126591 -0.868038 -0.480056
vn 0.000519 -0.858669 -0.512467
vn -0.126591 -0.868038 0.480056
vn 0.000519 -0.858669 0.512467
vn 0.006745 0.028077 0.999573
vn -0.080203 -0.040895 0.995911
vn 0.013916 0.872646 0.488083
vn -0.020631 0.854030 -0.519761
vn 0.013916 0.872646 -0.488083
vn -0.020631 0.854030 0.519761
vn -0.682058 0.066042 -0.728263
vn -0.757012 -0.548631 -0.354808
vn -0.757012 -0.548631 0.354808
g Cylinder.045_Cylinder.011_SailCloth
usemtl SailCloth
s 1
f 55//31 32//32 56//33
f 56//33 34//34 57//35
f 57//35 36//36 38//37
f 58//38 38//37 40//39
f 34//34 32//32 36//36
f 60//40 42//41 55//31
f 59//42 40//39 60//40
f 41//43 37//44 39//45
f 54//46 43//47 49//48
f 49//48 44//49 50//50
f 50//50 45//51 46//52
f 51//53 46//52 47//54
f 53//55 48//56 54//46
f 52//57 47//54 53//55
f 31//58 54//46 49//48
f 33//59 49//48 35//60
f 35//60 50//50 37//44
f 37//44 51//53 39//45
f 41//43 53//55 54//46
f 39//45 52//57 41//43
f 43//47 55//31 56//33
f 44//49 56//33 45//51
f 45//51 57//35 46//52
f 46//52 58//38 47//54
f 48//56 60//40 55//31
f 47//54 59//42 48//56
f 32//32 34//34 56//33
f 34//34 36//36 57//35
f 58//38 57//35 38//37
f 59//42 58//38 40//39
f 36//36 32//32 38//37
f 32//32 42//41 38//37
f 42//41 40//39 38//37
f 42//41 32//32 55//31
f 40//39 42//41 60//40
f 41//43 31//58 37//44
f 31//58 33//59 37//44
f 33//59 35//60 37//44
f 43//47 44//49 49//48
f 44//49 45//51 50//50
f 51//53 50//50 46//52
f 52//57 51//53 47//54
f 48//56 43//47 54//46
f 47//54 48//56 53//55
f 33//59 31//58 49//48
f 49//48 50//50 35//60
f 50//50 51//53 37//44
f 51//53 52//57 39//45
f 31//58 41//43 54//46
f 52//57 53//55 41//43
f 44//49 43//47 56//33
f 56//33 57//35 45//51
f 57//35 58//38 46//52
f 58//38 59//42 47//54
f 43//47 48//56 55//31
f 59//42 60//40 48//56
v -0.016335 0.010588 0.079770
v -0.016335 4.602924 0.041620
v -0.088669 0.010588 0.027217
v -0.052386 4.602924 0.015428
v -0.061040 0.010588 -0.057816
v -0.038616 4.602924 -0.026952
v 0.028369 0.010588 -0.057816
v 0.005945 4.602924 -0.026952
v 0.055998 0.010588 0.027217
v 0.019715 4.602924 0.015428
vn 0.000000 -0.592578 0.805506
vn 0.000000 0.598773 0.800867
vn -0.766076 -0.592578 0.248909
vn -0.761681 0.598773 0.247475
vn -0.473464 -0.592578 -0.651662
vn -0.470748 0.598804 -0.647908
vn 0.473464 -0.592578 -0.651662
vn 0.761681 0.598773 0.247475
vn 0.470748 0.598804 -0.647908
vn 0.766076 -0.592578 0.248909
g Cylinder.051_Cylinder_Wood
usemtl Wood
s 1
f 61//61 62//62 63//63
f 63//63 64//64 65//65
f 65//65 66//66 67//67
f 62//62 70//68 68//69
f 69//70 70//68 61//61
f 67//67 68//69 69//70
f 61//61 63//63 65//65
f 62//62 64//64 63//63
f 64//64 66//66 65//65
f 66//66 68//69 67//67
f 64//64 62//62 66//66
f 62//62 68//69 66//66
f 70//68 62//62 61//61
f 68//69 70//68 69//70
f 69//70 61//61 67//67
f 61//61 65//65 67//67
v 0.844669 2.757028 0.141437
v -0.819321 2.757028 0.141436
v 0.844669 2.700892 0.100652
v -0.819321 2.700892 0.100651
v 0.844669 2.722334 0.034660
v -0.819321 2.722334 0.034660
v 0.844669 2.791721 0.034660
v -0.819321 2.791722 0.034660
v 0.844669 2.813164 0.100652
v -0.819321 2.813164 0.100651
vn 0.595691 0.000000 0.803186
vn -0.595691 0.000000 0.803186
vn 0.595691 -0.763878 0.248177
vn -0.595691 -0.763878 0.248177
vn 0.595691 -0.472091 -0.649800
vn -0.595691 -0.472091 -0.649800
vn 0.595691 0.472091 -0.649800
vn 0.595691 0.763878 0.248177
vn -0.595691 0.763878 0.248207
vn -0.595691 0.472091 -0.649800
g Cylinder.052_Cylinder.001_Wood
usemtl Wood
s 1
f 71//71 72//72 73//73
f 73//73 74//74 75//75
f 75//75 76//76 77//77
f 74//74 72//72 76//76
f 79//78 80//79 71//71
f 77//77 78//80 79//78
f 79//78 71//71 77//77
f 72//72 74//74 73//73
f 74//74 76//76 75//75
f 76//76 78//80 77//77
f 72//72 80//79 78//80
f 76//76 72//72 78//80
f 80//79 72//72 71//71
f 78//80 80//79 79//78
f 71//71 73//73 75//75
f 77//77 71//71 75//75
v 0.684294 4.154168 0.103332
v -0.654973 4.154168 0.103332
v 0.684294 4.108987 0.070506
v -0.654973 4.108987 0.070506
v 0.684294 4.126245 0.017392
v -0.654973 4.126245 0.017392
v 0.684294 4.182092 0.017392
v -0.654973 4.182092 0.017392
v 0.684294 4.199349 0.070506
v -0.654973 4.199349 0.070506
vn 0.595691 0.000000 0.803186
vn -0.595691 0.000000 0.803186
vn 0.595691 -0.763878 0.248207
vn -0.595691 -0.763878 0.248207
vn 0.595691 -0.472091 -0.649800
vn -0.595691 -0.472091 -0.649800
vn 0.595691 0.472091 -0.649800
vn 0.595691 0.763878 0.248177
vn -0.595691 0.763878 0.248207
vn -0.595691 0.472091 -0.649800
g Cylinder.053_Cylinder.001_Wood
usemtl Wood
s 1
f 81//81 82//82 83//83
f 83//83 84//84 85//85
f 85//85 86//86 87//87
f 84//84 82//82 86//86
f 89//88 90//89 81//81
f 87//87 88//90 89//88
f 81//81 83//83 85//85
f 82//82 84//84 83//83
f 84//84 86//86 85//85
f 86//86 88//90 87//87
f 82//82 90//89 86//86
f 90//89 88//90 86//86
f 90//89 82//82 81//81
f 88//90 90//89 89//88
f 89//88 81//81 85//85
f 87//87 89//88 85//85
