# Blender v2.69 (sub 0) OBJ File: 'ship_split.blend'
# www.blender.org
mtllib ship.mtl
v -0.720934 4.476982 0.121963
v 0.749220 4.462262 0.122543
v -0.722087 4.432172 0.147842
v 0.748080 4.417954 0.148133
v -0.722087 4.432172 0.199601
v 0.748080 4.417954 0.199311
v -0.720934 4.476982 0.225481
v 0.749220 4.462262 0.224900
v -0.719781 4.521792 0.199601
v 0.750360 4.506568 0.199311
v -0.719781 4.521792 0.147842
v 0.750360 4.506568 0.148133
v -0.015971 4.426839 0.064804
v -0.018397 4.332545 0.119263
v -0.018397 4.332545 0.228181
v -0.015971 4.426839 0.282640
v -0.013544 4.521134 0.228181
v -0.013544 4.521134 0.119263
v -0.372667 4.288121 0.109743
v -0.372667 4.288121 0.237701
v -0.369816 4.398899 0.301680
v -0.366966 4.509677 0.237701
v -0.366966 4.509677 0.109743
v -0.369816 4.398899 0.045764
v 0.365234 4.390490 0.049529
v 0.362467 4.282971 0.111625
v 0.362467 4.282971 0.235818
v 0.365234 4.390490 0.297915
v 0.368000 4.498009 0.235818
v 0.368000 4.498009 0.111625
vn 0.075747 -0.042207 -0.996216
vn 0.675069 0.035707 -0.736869
vn 0.099734 -0.871334 -0.480422
vn 0.724784 -0.588427 -0.358348
vn 0.099734 -0.871334 0.480422
vn 0.724754 -0.588427 0.358348
vn 0.675069 0.035707 0.736869
vn 0.075747 -0.042207 0.996216
vn 0.628559 0.682791 0.372387
vn 0.036714 0.853847 -0.519211
vn 0.628559 0.682791 -0.372387
vn 0.036714 0.853847 0.519211
vn -0.682058 0.066042 -0.728263
vn -0.757012 -0.548631 -0.354808
vn -0.757012 -0.548631 0.354808
vn -0.080203 -0.040895 -0.995911
vn 0.006745 0.028077 -0.999573
vn -0.126591 -0.868038 -0.480056
vn 0.000519 -0.858669 -0.512467
vn -0.126591 -0.868038 0.480056
vn 0.000519 -0.858669 0.512467
vn 0.006745 0.028077 0.999573
vn -0.080203 -0.040895 0.995911
vn 0.013916 0.872646 0.488083
vn -0.020631 0.854030 -0.519761
vn 0.013916 0.872646 -0.488083
vn -0.020631 0.854030 0.519761
vn -0.682058 0.066042 0.728263
vn -0.608234 0.703116 0.368267
vn -0.608234 0.703116 -0.368267
g Cylinder.035_Cylinder.011_SailCloth
usemtl SailCloth
s 1
f 25//1 2//2 26//3
f 26//3 4//4 27//5
f 27//5 6//6 8//7
f 28//8 8//7 10//9
f 6//6 4//4 8//7
f 30//10 12//11 25//1
f 29//12 10//9 30//10
f 1//13 3//14 5//15
f 24//16 13//17 19//18
f 19//18 14//19 20//20
f 20//20 15//21 16//22
f 21//23 16//22 17//24
f 23//25 18//26 24//16
f 22//27 17//24 23//25
f 1//13 24//16 19//18
f 3//14 19//18 5//15
f 5//15 20//20 7//28
f 7//28 21//23 9//29
f 11//30 23//25 24//16
f 9//29 22//27 11//30
f 13//17 25//1 26//3
f 14//19 26//3 15//21
f 15//21 27//5 16//22
f 16//22 28//8 17//24
f 18//26 30//10 25//1
f 17//24 29//12 18//26
f 2//2 4//4 26//3
f 4//4 6//6 27//5
f 28//8 27//5 8//7
f 29//12 28//8 10//9
f 4//4 2//2 8//7
f 2//2 12//11 8//7
f 12//11 10//9 8//7
f 12//11 2//2 25//1
f 10//9 12//11 30//10
f 1//13 5//15 7//28
f 11//30 1//13 9//29
f 1//13 7//28 9//29
f 13//17 14//19 19//18
f 14//19 15//21 20//20
f 21//23 20//20 16//22
f 22//27 21//23 17//24
f 18//26 13//17 24//16
f 17//24 18//26 23//25
f 3//14 1//13 19//18
f 19//18 20//20 5//15
f 20//20 21//23 7//28
f 21//23 22//27 9//29
f 1//13 11//30 24//16
f 22//27 23//25 11//30
f 14//19 13//17 26//3
f 26//3 27//5 15//21
f 27//5 28//8 16//22
f 28//8 29//12 17//24
f 13//17 18//26 25//1
f 29//12 30//10 18//26
v -0.858022 2.986432 0.049166
v 0.893001 3.013946 0.049858
v -0.858022 2.933040 0.079992
v 0.893001 2.961153 0.080338
v -0.858022 2.933040 0.141644
v 0.893001 2.961153 0.141298
v -0.858022 2.986432 0.172470
v 0.893001 3.013946 0.171779
v -0.858021 3.039824 0.141644
v 0.893001 3.066739 0.141298
v -0.858021 3.039824 0.079992
v 0.893001 3.066739 0.080338
v -0.017057 2.948323 -0.018918
v -0.017057 2.835969 0.045950
v -0.017057 2.835969 0.175686
v -0.017057 2.948323 0.240554
v -0.017057 3.060678 0.175686
v -0.017057 3.060678 0.045950
v -0.437540 2.772217 0.034611
v -0.437540 2.772217 0.187026
v -0.437539 2.904213 0.263233
v -0.437539 3.036208 0.187026
v -0.437539 3.036208 0.034611
v -0.437539 2.904213 -0.041597
v 0.437972 2.916720 -0.037112
v 0.437972 2.788609 0.036853
v 0.437972 2.788609 0.184783
v 0.437972 2.916720 0.258749
v 0.437972 3.044832 0.184783
v 0.437972 3.044832 0.036853
vn 0.076815 -0.040254 -0.996216
vn 0.673910 0.053041 -0.736869
vn 0.122105 -0.868465 -0.480422
vn 0.739677 -0.569597 -0.358348
vn 0.122105 -0.868465 0.480422
vn 0.739677 -0.569597 0.358348
vn 0.673910 0.053041 0.736869
vn 0.076815 -0.040254 0.996216
vn 0.610797 0.698721 0.372387
vn 0.014740 0.854488 -0.519211
vn 0.610797 0.698721 -0.372387
vn 0.014740 0.854488 0.519211
vn -0.742668 -0.567919 -0.354808
vn -0.742668 -0.567919 0.354808
vn -0.683554 0.048463 0.728263
vn -0.079104 -0.042940 -0.995911
vn 0.006012 0.028260 -0.999573
vn -0.104221 -0.870998 -0.480056
vn 0.022614 -0.858394 -0.512467
vn -0.104221 -0.870998 0.480056
vn 0.022614 -0.858394 0.512467
vn 0.006012 0.028260 0.999573
vn -0.079104 -0.042940 0.995911
vn -0.008515 0.872738 0.488083
vn -0.042604 0.853236 -0.519761
vn -0.008515 0.872738 -0.488083
vn -0.042604 0.853236 0.519761
vn -0.683554 0.048463 -0.728263
vn -0.626118 0.687246 0.368267
vn -0.626118 0.687246 -0.368267
g Cylinder.028_Cylinder.011_SailCloth
usemtl SailCloth
s 1
f 55//31 32//32 56//33
f 56//33 34//34 57//35
f 57//35 36//36 38//37
f 58//38 38//37 40//39
f 36//36 34//34 38//37
f 60//40 42//41 55//31
f 59//42 40//39 60//40
f 33//43 35//44 37//45
f 54//46 43//47 49//48
f 49//48 44//49 50//50
f 50//50 45//51 46//52
f 51//53 46//52 47//54
f 53//55 48//56 54//46
f 52//57 47//54 53//55
f 31//58 54//46 49//48
f 33//43 49//48 35//44
f 35//44 50//50 37//45
f 37//45 51//53 39//59
f 41//60 53//55 54//46
f 39//59 52//57 41//60
f 43//47 55//31 56//33
f 44//49 56//33 45//51
f 45//51 57//35 46//52
f 46//52 58//38 47//54
f 48//56 60//40 55//31
f 47//54 59//42 48//56
f 32//32 34//34 56//33
f 34//34 36//36 57//35
f 58//38 57//35 38//37
f 59//42 58//38 40//39
f 34//34 32//32 38//37
f 32//32 42//41 38//37
f 42//41 40//39 38//37
f 42//41 32//32 55//31
f 40//39 42//41 60//40
f 31//58 33//43 37//45
f 41//60 31//58 39//59
f 31//58 37//45 39//59
f 43//47 44//49 49//48
f 44//49 45//51 50//50
f 51//53 50//50 46//52
f 52//57 51//53 47//54
f 48//56 43//47 54//46
f 47//54 48//56 53//55
f 33//43 31//58 49//48
f 49//48 50//50 35//44
f 50//50 51//53 37//45
f 51//53 52//57 39//59
f 31//58 41//60 54//46
f 52//57 53//55 41//60
f 44//49 43//47 56//33
f 56//33 57//35 45//51
f 57//35 58//38 46//52
f 58//38 59//42 47//54
f 43//47 48//56 55//31
f 59//42 60//40 48//56
v -0.016335 0.008602 0.079385
v -0.016335 5.362830 0.034906
v -0.100669 0.008602 0.018113
v -0.058367 5.362830 0.004368
v -0.068456 0.008602 -0.081027
v -0.042312 5.362830 -0.045043
v 0.035786 0.008602 -0.081027
v 0.009642 5.362830 -0.045043
v 0.067998 0.008602 0.018113
v 0.025697 5.362830 0.004368
vn 0.000000 -0.592578 0.805506
vn 0.000000 0.598773 0.800867
vn -0.766076 -0.592578 0.248909
vn -0.761681 0.598773 0.247475
vn -0.473464 -0.592578 -0.651662
vn -0.470748 0.598804 -0.647908
vn 0.473464 -0.592578 -0.651662
vn 0.766076 -0.592578 0.248909
vn 0.761681 0.598773 0.247475
vn 0.470748 0.598804 -0.647908
g Cylinder.029_Cylinder.007_Wood
usemtl Wood
s 1
f 61//61 62//62 63//63
f 63//63 64//64 65//65
f 65//65 66//66 67//67
f 64//64 62//62 66//66
f 69//68 70//69 61//61
f 67//67 68//70 69//68
f 69//68 65//65 67//67
f 62//62 64//64 63//63
f 64//64 66//66 65//65
f 66//66 68//70 67//67
f 62//62 70//69 66//66
f 70//69 68//70 66//66
f 70//69 62//62 61//61
f 68//70 70//69 69//68
f 61//61 63//63 69//68
f 63//63 65//65 69//68
v 0.741418 4.585374 0.139391
v -0.701988 4.585374 0.139391
v 0.741418 4.536680 0.104012
v -0.701988 4.536680 0.104012
v 0.741418 4.555280 0.046769
v -0.701988 4.555280 0.046769
v 0.741418 4.615469 0.046769
v -0.701988 4.615469 0.046769
v 0.741418 4.634068 0.104012
v -0.701988 4.634068 0.104012
vn 0.595691 0.000000 0.803186
vn -0.595691 0.000000 0.803186
vn 0.595691 -0.763878 0.248177
vn -0.595691 -0.763878 0.248207
vn 0.595691 -0.472091 -0.649800
vn -0.595691 -0.472091 -0.649800
vn 0.595691 0.472091 -0.649800
vn -0.595691 0.763878 0.248177
vn 0.595691 0.763878 0.248207
vn -0.595691 0.472091 -0.649800
g Cylinder.030_Cylinder.008_Wood
usemtl Wood
s 1
f 71//71 72//72 73//73
f 73//73 74//74 75//75
f 75//75 76//76 77//77
f 74//74 72//72 80//78
f 79//79 80//78 71//71
f 77//77 78//80 79//79
f 71//71 73//73 79//79
f 72//72 74//74 73//73
f 74//74 76//76 75//75
f 76//76 78//80 77//77
f 76//76 74//74 78//80
f 74//74 80//78 78//80
f 80//78 72//72 71//71
f 78//80 80//78 79//79
f 73//73 75//75 79//79
f 75//75 77//77 79//79
v 0.914264 3.079595 0.180458
v -0.879115 3.079595 0.180458
v 0.914264 3.019094 0.136502
v -0.879115 3.019094 0.136501
v 0.914264 3.042204 0.065378
v -0.879115 3.042203 0.065378
v 0.914264 3.116987 0.065378
v -0.879115 3.116987 0.065378
v 0.914264 3.140096 0.136502
v -0.879115 3.140096 0.136501
vn 0.595691 0.000000 0.803186
vn -0.595691 0.000000 0.803186
vn 0.595691 -0.763878 0.248177
vn -0.595691 -0.763878 0.248177
vn 0.595691 -0.472091 -0.649800
vn -0.595691 -0.472091 -0.649800
vn 0.595691 0.472091 -0.649800
vn -0.595691 0.763878 0.248177
vn -0.595691 0.472091 -0.649800
vn 0.595691 0.763878 0.248207
g Cylinder.034_Cylinder.009_Wood
usemtl Wood
s 1
f 81//81 82//82 83//83
f 83//83 84//84 85//85
f 85//85 86//86 87//87
f 82//82 90//88 88//89
f 89//90 90//88 81//81
f 87//87 88//89 89//90
f 81//81 83//83 85//85
f 82//82 84//84 83//83
f 84//84 86//86 85//85
f 86//86 88//89 87//87
f 84//84 82//82 86//86
f 82//82 88//89 86//86
f 90//88 82//82 81//81
f 88//89 90//88 89//90
f 89//90 81//81 87//87
f 81//81 85//85 87//87
