# Blender v2.69 (sub 0) OBJ File: 'ship_split.blend'
# www.blender.org
mtllib ship.mtl
v -0.016335 0.008602 0.079385
v -0.016335 5.362830 0.034906
v -0.100669 0.008602 0.018113
v -0.058367 5.362830 0.004368
v -0.068456 0.008602 -0.081027
v -0.042312 5.362830 -0.045043
v 0.035786 0.008602 -0.081027
v 0.009642 5.362830 -0.045043
v 0.067998 0.008602 0.018113
v 0.025697 5.362830 0.004368
vn 0.000000 -0.592578 0.805506
vn 0.000000 0.598773 0.800867
vn -0.766076 -0.592578 0.248909
vn -0.761681 0.598773 0.247475
vn -0.473464 -0.592578 -0.651662
vn -0.470748 0.598804 -0.647908
vn 0.473464 -0.592578 -0.651662
vn 0.766076 -0.592578 0.248909
vn 0.761681 0.598773 0.247475
vn 0.470748 0.598804 -0.647908
g Cylinder.016_Cylinder_Wood
usemtl Wood
s 1
f 1//1 2//2 3//3
f 3//3 4//4 5//5
f 5//5 6//6 7//7
f 4//4 2//2 6//6
f 9//8 10//9 1//1
f 7//7 8//10 9//8
f 9//8 5//5 7//7
f 2//2 4//4 3//3
f 4//4 6//6 5//5
f 6//6 8//10 7//7
f 2//2 10//9 6//6
f 10//9 8//10 6//6
f 10//9 2//2 1//1
f 8//10 10//9 9//8
f 1//1 3//3 9//8
f 3//3 5//5 9//8
v 0.741418 4.585374 0.139391
v -0.701988 4.585374 0.139391
v 0.741418 4.536680 0.104012
v -0.701988 4.536680 0.104012
v 0.741418 4.555280 0.046769
v -0.701988 4.555280 0.046769
v 0.741418 4.615469 0.046769
v -0.701988 4.615469 0.046769
v 0.741418 4.634068 0.104012
v -0.701988 4.634068 0.104012
vn 0.595691 0.000000 0.803186
vn -0.595691 0.000000 0.803186
vn 0.595691 -0.763878 0.248177
vn -0.595691 -0.763878 0.248207
vn 0.595691 -0.472091 -0.649800
vn -0.595691 -0.472091 -0.649800
vn 0.595691 0.472091 -0.649800
vn -0.595691 0.763878 0.248177
vn 0.595691 0.763878 0.248207
vn -0.595691 0.472091 -0.649800
g Cylinder.018_Cylinder.001_Wood
usemtl Wood
s 1
f 11//11 12//12 13//13
f 13//13 14//14 15//15
f 15//15 16//16 17//17
f 14//14 12//12 20//18
f 19//19 20//18 11//11
f 17//17 18//20 19//19
f 11//11 13//13 19//19
f 12//12 14//14 13//13
f 14//14 16//16 15//15
f 16//16 18//20 17//17
f 16//16 14//14 18//20
f 14//14 20//18 18//20
f 20//18 12//12 11//11
f 18//20 20//18 19//19
f 13//13 15//15 19//19
f 15//15 17//17 19//19
v -0.792955 3.275765 0.089929
v 0.816751 3.275766 0.089929
v -0.665220 4.532256 0.097919
v 0.689016 4.532256 0.097919
v 0.011898 3.395592 0.132532
v 0.011898 4.532256 0.119313
v 0.752883 3.973384 0.297596
v -0.729087 3.973384 0.297595
v 0.011898 3.973384 0.411681
v 0.414325 3.379538 0.089929
v 0.350457 4.532256 0.122303
v 0.784817 3.649876 0.227200
v -0.697153 4.278121 0.246709
v -0.390528 3.379538 0.089929
v -0.326661 4.532256 0.122303
v 0.720950 4.278121 0.246709
v -0.761021 3.649876 0.227200
v 0.011898 4.278184 0.380066
v 0.011898 3.743996 0.366763
v 0.382391 3.973384 0.391987
v -0.358595 3.973384 0.391986
v -0.342628 4.278169 0.360676
v 0.366424 4.278169 0.360676
v 0.398358 3.724334 0.325430
v -0.374561 3.724333 0.325430
v -0.792955 3.275765 0.089929
v 0.816751 3.275766 0.089929
v -0.665220 4.532256 0.097919
v 0.689016 4.532256 0.097919
v 0.011898 3.395592 0.132532
v 0.011898 4.532256 0.119313
v 0.752883 3.973384 0.297596
v -0.729087 3.973384 0.297595
v 0.011898 3.973384 0.411681
v 0.414325 3.379538 0.089929
v 0.350457 4.532256 0.122303
v 0.784817 3.649876 0.227200
v -0.697153 4.278121 0.246709
v -0.390528 3.379538 0.089929
v -0.326661 4.532256 0.122303
v 0.720950 4.278121 0.246709
v -0.761021 3.649876 0.227200
v 0.011898 4.278184 0.380066
v 0.011898 3.743996 0.366763
v 0.382391 3.973384 0.391987
v -0.358595 3.973384 0.391986
v -0.342628 4.278169 0.360676
v 0.366424 4.278169 0.360676
v 0.398358 3.724334 0.325430
v -0.374561 3.724333 0.325430
vn 0.127567 -0.402722 -0.906369
vn 0.286115 -0.355295 -0.889890
vn 0.163814 -0.600995 -0.782285
vn -0.127567 -0.402722 -0.906369
vn 0.000000 -0.431532 -0.902066
vn 0.000000 -0.700463 -0.713689
vn -0.093051 0.375317 -0.922178
vn 0.000000 0.373669 -0.927549
vn 0.000000 0.056673 -0.998383
vn 0.093051 0.375317 -0.922178
vn 0.194065 0.279166 -0.940428
vn 0.142979 0.064669 -0.987579
vn 0.262376 0.025519 -0.964628
vn -0.286114 -0.355295 -0.889890
vn -0.163814 -0.600995 -0.782285
vn -0.262376 0.025519 -0.964628
vn -0.142979 0.064669 -0.987579
vn -0.194065 0.279167 -0.940428
vn -0.009025 0.458207 -0.888800
vn 0.053446 0.563963 -0.824068
vn 0.000000 0.557930 -0.829888
vn -0.053446 0.563964 -0.824068
vn 0.009025 0.458207 -0.888799
vn -0.022512 0.684774 0.728408
vn -0.163814 0.600995 0.782285
vn -0.127567 0.402722 0.906369
vn 0.022512 0.684774 0.728408
vn -0.000000 0.700463 0.713689
vn 0.127567 0.402722 0.906369
vn 0.142979 -0.064669 0.987579
vn 0.000000 -0.056673 0.998383
vn 0.093051 -0.375317 0.922178
vn -0.142979 -0.064669 0.987579
vn -0.262377 -0.025519 0.964628
vn -0.194066 -0.279166 0.940428
vn 0.000000 0.431532 0.902066
vn -0.286115 0.355295 0.889890
vn 0.163814 0.600995 0.782285
vn 0.286114 0.355295 0.889890
vn 0.262376 -0.025519 0.964628
vn 0.194065 -0.279167 0.940428
vn 0.009025 -0.458207 0.888800
vn 0.000000 -0.373669 0.927549
vn -0.053446 -0.563963 0.824069
vn -0.093051 -0.375317 0.922178
vn 0.053446 -0.563964 0.824068
vn -0.009025 -0.458207 0.888799
vn 0.022512 -0.684774 -0.728408
vn -0.022512 -0.684774 -0.728408
vn -0.000000 -0.557930 0.829888
g Plane.008_Plane.001_SailCloth
usemtl SailCloth
s 1
f 42//21 33//22 23//23
f 43//24 38//25 26//26
f 44//27 39//28 29//29
f 45//30 37//31 41//32
f 38//25 42//21 26//26
f 29//29 41//32 38//25
f 41//32 28//33 42//21
f 36//34 43//24 24//35
f 27//36 40//37 43//24
f 40//37 29//29 38//25
f 32//38 44//27 40//37
f 22//39 30//40 44//27
f 30//40 25//41 39//28
f 39//28 45//30 29//29
f 25//41 34//42 39//28
f 34//42 21//43 45//30
f 60//44 48//45 67//46
f 56//47 51//48 68//49
f 65//50 54//51 69//52
f 66//53 53//54 62//55
f 51//48 60//44 67//46
f 63//56 67//46 66//53
f 67//46 58//57 53//54
f 49//58 56//47 68//49
f 61//59 68//49 52//60
f 68//49 63//56 65//50
f 52//60 65//50 57//61
f 57//61 69//52 47//62
f 69//52 64//63 55//64
f 54//51 66//53 70//65
f 64//63 70//65 59//66
f 70//65 62//55 46//67
f 35//68 42//21 23//23
f 31//69 43//24 26//26
f 40//37 44//27 29//29
f 37//31 28//33 41//32
f 42//21 35//68 26//26
f 41//32 42//21 38//25
f 28//33 33//22 42//21
f 43//24 31//69 24//35
f 36//34 27//36 43//24
f 43//24 40//37 38//25
f 27//36 32//38 40//37
f 32//38 22//39 44//27
f 44//27 30//40 39//28
f 45//30 41//32 29//29
f 34//42 45//30 39//28
f 21//43 37//31 45//30
f 48//45 58//57 67//46
f 51//48 63//56 68//49
f 54//51 64//63 69//52
f 70//65 66//53 62//55
f 63//56 51//48 67//46
f 54//51 63//56 66//53
f 66//53 67//46 53//54
f 61//59 49//58 68//49
f 68//49 65//50 52//60
f 63//56 54//51 65//50
f 65//50 69//52 57//61
f 69//52 55//64 47//62
f 64//63 50//70 55//64
f 64//63 54//51 70//65
f 50//70 64//63 59//66
f 59//66 70//65 46//67
v 0.914264 3.079595 0.180458
v -0.879115 3.079595 0.180458
v 0.914264 3.019094 0.136502
v -0.879115 3.019094 0.136501
v 0.914264 3.042204 0.065378
v -0.879115 3.042203 0.065378
v 0.914264 3.116987 0.065378
v -0.879115 3.116987 0.065378
v 0.914264 3.140096 0.136502
v -0.879115 3.140096 0.136501
vn 0.595691 0.000000 0.803186
vn -0.595691 0.000000 0.803186
vn 0.595691 -0.763878 0.248177
vn -0.595691 -0.763878 0.248177
vn 0.595691 -0.472091 -0.649800
vn -0.595691 -0.472091 -0.649800
vn 0.595691 0.472091 -0.649800
vn -0.595691 0.763878 0.248177
vn -0.595691 0.472091 -0.649800
vn 0.595691 0.763878 0.248207
g Cylinder.017_Cylinder.001_Wood
usemtl Wood
s 1
f 71//71 72//72 73//73
f 73//73 74//74 75//75
f 75//75 76//76 77//77
f 72//72 80//78 78//79
f 79//80 80//78 71//71
f 77//77 78//79 79//80
f 71//71 73//73 75//75
f 72//72 74//74 73//73
f 74//74 76//76 75//75
f 76//76 78//79 77//77
f 74//74 72//72 76//76
f 72//72 78//79 76//76
f 80//78 72//72 71//71
f 78//79 80//78 79//80
f 79//80 71//71 77//77
f 71//71 75//75 77//77
v -0.993418 1.073405 0.105264
v 1.006582 1.073405 0.105265
v -0.834712 3.073405 0.115192
v 0.847876 3.073405 0.115192
v 0.006582 1.264137 0.158197
v 0.006582 3.073405 0.141773
v 0.927229 2.183829 0.363283
v -0.914065 2.183829 0.363282
v 0.006582 2.183829 0.505029
v 0.506582 1.238584 0.105265
v 0.427229 3.073405 0.145487
v 0.966906 1.668890 0.275818
v -0.874389 2.668889 0.300057
v -0.493418 1.238584 0.105264
v -0.414065 3.073405 0.145487
v 0.887553 2.668890 0.300058
v -0.953741 1.668889 0.275818
v 0.006582 2.668990 0.465749
v 0.006582 1.818703 0.449220
v 0.466906 2.183829 0.480560
v -0.453741 2.183829 0.480560
v -0.433903 2.668965 0.441657
v 0.447067 2.668965 0.441657
v 0.486744 1.787406 0.397866
v -0.473580 1.787406 0.397866
v -0.993418 1.073405 0.105264
v 1.006582 1.073405 0.105265
v -0.834712 3.073405 0.115192
v 0.847876 3.073405 0.115192
v 0.006582 1.264137 0.158197
v 0.006582 3.073405 0.141773
v 0.927229 2.183829 0.363283
v -0.914065 2.183829 0.363282
v 0.006582 2.183829 0.505029
v 0.506582 1.238584 0.105265
v 0.427229 3.073405 0.145487
v 0.966906 1.668890 0.275818
v -0.874389 2.668889 0.300057
v -0.493418 1.238584 0.105264
v -0.414065 3.073405 0.145487
v 0.887553 2.668890 0.300058
v -0.953741 1.668889 0.275818
v 0.006582 2.668990 0.465749
v 0.006582 1.818703 0.449220
v 0.466906 2.183829 0.480560
v -0.453741 2.183829 0.480560
v -0.433903 2.668965 0.441657
v 0.447067 2.668965 0.441657
v 0.486744 1.787406 0.397866
v -0.473580 1.787406 0.397866
vn 0.134251 -0.336741 -0.931944
vn 0.293141 -0.287748 -0.911740
vn 0.163498 -0.516468 -0.840553
vn -0.134251 -0.336741 -0.931944
vn 0.000000 -0.366039 -0.930570
vn 0.000000 -0.606634 -0.794981
vn -0.099551 0.300455 -0.948576
vn 0.000000 0.303934 -0.952666
vn 0.000000 0.046632 -0.998901
vn 0.099551 0.300455 -0.948576
vn 0.195456 0.223344 -0.954942
vn 0.144078 0.050386 -0.988281
vn 0.260492 0.020437 -0.965260
vn -0.293141 -0.287748 -0.911740
vn -0.163498 -0.516468 -0.840553
vn -0.260492 0.020437 -0.965260
vn -0.144078 0.050386 -0.988281
vn -0.195456 0.223343 -0.954942
vn 0.009584 0.385148 -0.922805
vn 0.058839 0.470340 -0.880522
vn 0.000000 0.464678 -0.885480
vn -0.058839 0.470339 -0.880522
vn -0.009584 0.385148 -0.922805
vn -0.024981 0.591433 0.805967
vn -0.163498 0.516468 0.840553
vn -0.134251 0.336741 0.931944
vn 0.024980 0.591433 0.805967
vn -0.000000 0.606634 0.794982
vn 0.134251 0.336741 0.931944
vn 0.144078 -0.050386 0.988281
vn 0.000000 -0.046632 0.998901
vn 0.099551 -0.300455 0.948576
vn -0.144078 -0.050386 0.988281
vn -0.260492 -0.020437 0.965260
vn -0.195456 -0.223343 0.954942
vn 0.000000 0.366039 0.930570
vn -0.293141 0.287748 0.911740
vn 0.163498 0.516468 0.840553
vn 0.293141 0.287748 0.911740
vn 0.260492 -0.020437 0.965260
vn 0.195456 -0.223343 0.954942
vn -0.009584 -0.385148 0.922805
vn 0.000000 -0.303934 0.952666
vn -0.058840 -0.470340 0.880522
vn -0.099551 -0.300455 0.948576
vn 0.058839 -0.470339 0.880522
vn 0.009584 -0.385148 0.922805
vn 0.024981 -0.591433 -0.805967
vn -0.024980 -0.591433 -0.805967
vn -0.000000 -0.464678 0.885480
g Plane.007_Plane.001_SailCloth
usemtl SailCloth
s 1
f 102//81 93//82 83//83
f 103//84 98//85 86//86
f 104//87 99//88 89//89
f 105//90 97//91 101//92
f 98//85 102//81 86//86
f 89//89 101//92 98//85
f 101//92 88//93 102//81
f 96//94 103//84 84//95
f 87//96 100//97 103//84
f 100//97 89//89 98//85
f 92//98 104//87 100//97
f 82//99 90//100 104//87
f 90//100 85//101 99//88
f 99//88 105//90 89//89
f 85//101 94//102 99//88
f 94//102 81//103 105//90
f 120//104 108//105 127//106
f 116//107 111//108 128//109
f 125//110 114//111 129//112
f 126//113 113//114 122//115
f 111//108 120//104 127//106
f 123//116 127//106 126//113
f 127//106 118//117 113//114
f 109//118 116//107 128//109
f 121//119 128//109 112//120
f 128//109 123//116 125//110
f 112//120 125//110 117//121
f 117//121 129//112 107//122
f 129//112 124//123 115//124
f 114//111 126//113 130//125
f 124//123 130//125 119//126
f 130//125 122//115 106//127
f 95//128 102//81 83//83
f 91//129 103//84 86//86
f 100//97 104//87 89//89
f 97//91 88//93 101//92
f 102//81 95//128 86//86
f 101//92 102//81 98//85
f 88//93 93//82 102//81
f 103//84 91//129 84//95
f 96//94 87//96 103//84
f 103//84 100//97 98//85
f 87//96 92//98 100//97
f 92//98 82//99 104//87
f 104//87 90//100 99//88
f 105//90 101//92 89//89
f 94//102 105//90 99//88
f 81//103 97//91 105//90
f 108//105 118//117 127//106
f 111//108 123//116 128//109
f 114//111 124//123 129//112
f 130//125 126//113 122//115
f 123//116 111//108 127//106
f 114//111 123//116 126//113
f 126//113 127//106 113//114
f 121//119 109//118 128//109
f 128//109 125//110 112//120
f 123//116 114//111 125//110
f 125//110 129//112 117//121
f 129//112 115//124 107//122
f 124//123 110//130 115//124
f 124//123 114//111 130//125
f 110//130 124//123 119//126
f 119//126 130//125 106//127
