# Blender v2.69 (sub 0) OBJ File: 'ship_split.blend'
# www.blender.org
mtllib ship.mtl
v -0.858022 2.986432 0.049166
v 0.893001 3.013946 0.049858
v -0.858022 2.933040 0.079992
v 0.893001 2.961153 0.080338
v -0.858022 2.933040 0.141644
v 0.893001 2.961153 0.141298
v -0.858022 2.986432 0.172470
v 0.893001 3.013946 0.171779
v -0.858021 3.039824 0.141644
v 0.893001 3.066739 0.141298
v -0.858021 3.039824 0.079992
v 0.893001 3.066739 0.080338
v -0.017057 2.948323 -0.018918
v -0.017057 2.835969 0.045950
v -0.017057 2.835969 0.175686
v -0.017057 2.948323 0.240554
v -0.017057 3.060678 0.175686
v -0.017057 3.060678 0.045950
v -0.437540 2.772217 0.034611
v -0.437540 2.772217 0.187026
v -0.437539 2.904213 0.263233
v -0.437539 3.036208 0.187026
v -0.437539 3.036208 0.034611
v -0.437539 2.904213 -0.041597
v 0.437972 2.916720 -0.037112
v 0.437972 2.788609 0.036853
v 0.437972 2.788609 0.184783
v 0.437972 2.916720 0.258749
v 0.437972 3.044832 0.184783
v 0.437972 3.044832 0.036853
vn 0.076815 -0.040254 -0.996216
vn 0.673910 0.053041 -0.736869
vn 0.122105 -0.868465 -0.480422
vn 0.739677 -0.569597 -0.358348
vn 0.122105 -0.868465 0.480422
vn 0.739677 -0.569597 0.358348
vn 0.673910 0.053041 0.736869
vn 0.076815 -0.040254 0.996216
vn 0.610797 0.698721 0.372387
vn 0.014740 0.854488 -0.519211
vn 0.610797 0.698721 -0.372387
vn 0.014740 0.854488 0.519211
vn -0.742668 -0.567919 -0.354808
vn -0.742668 -0.567919 0.354808
vn -0.683554 0.048463 0.728263
vn -0.079104 -0.042940 -0.995911
vn 0.006012 0.028260 -0.999573
vn -0.104221 -0.870998 -0.480056
vn 0.022614 -0.858394 -0.512467
vn -0.104221 -0.870998 0.480056
vn 0.022614 -0.858394 0.512467
vn 0.006012 0.028260 0.999573
vn -0.079104 -0.042940 0.995911
vn -0.008515 0.872738 0.488083
vn -0.042604 0.853236 -0.519761
vn -0.008515 0.872738 -0.488083
vn -0.042604 0.853236 0.519761
vn -0.683554 0.048463 -0.728263
vn -0.626118 0.687246 0.368267
vn -0.626118 0.687246 -0.368267
g Cylinder.022_Cylinder.011_SailCloth
usemtl SailCloth
s 1
f 25//1 2//2 26//3
f 26//3 4//4 27//5
f 27//5 6//6 8//7
f 28//8 8//7 10//9
f 6//6 4//4 8//7
f 30//10 12//11 25//1
f 29//12 10//9 30//10
f 3//13 5//14 7//15
f 24//16 13//17 19//18
f 19//18 14//19 20//20
f 20//20 15//21 16//22
f 21//23 16//22 17//24
f 23//25 18//26 24//16
f 22//27 17//24 23//25
f 1//28 24//16 19//18
f 3//13 19//18 5//14
f 5//14 20//20 7//15
f 7//15 21//23 9//29
f 11//30 23//25 24//16
f 9//29 22//27 11//30
f 13//17 25//1 26//3
f 14//19 26//3 15//21
f 15//21 27//5 16//22
f 16//22 28//8 17//24
f 18//26 30//10 25//1
f 17//24 29//12 18//26
f 2//2 4//4 26//3
f 4//4 6//6 27//5
f 28//8 27//5 8//7
f 29//12 28//8 10//9
f 4//4 2//2 8//7
f 2//2 12//11 8//7
f 12//11 10//9 8//7
f 12//11 2//2 25//1
f 10//9 12//11 30//10
f 1//28 3//13 7//15
f 11//30 1//28 9//29
f 1//28 7//15 9//29
f 13//17 14//19 19//18
f 14//19 15//21 20//20
f 21//23 20//20 16//22
f 22//27 21//23 17//24
f 18//26 13//17 24//16
f 17//24 18//26 23//25
f 3//13 1//28 19//18
f 19//18 20//20 5//14
f 20//20 21//23 7//15
f 21//23 22//27 9//29
f 1//28 11//30 24//16
f 22//27 23//25 11//30
f 14//19 13//17 26//3
f 26//3 27//5 15//21
f 27//5 28//8 16//22
f 28//8 29//12 17//24
f 13//17 18//26 25//1
f 29//12 30//10 18//26
v -0.016335 0.008602 0.079385
v -0.016335 5.362830 0.034906
v -0.100669 0.008602 0.018113
v -0.058367 5.362830 0.004368
v -0.068456 0.008602 -0.081027
v -0.042312 5.362830 -0.045043
v 0.035786 0.008602 -0.081027
v 0.009642 5.362830 -0.045043
v 0.067998 0.008602 0.018113
v 0.025697 5.362830 0.004368
vn 0.000000 -0.592578 0.805506
vn 0.000000 0.598773 0.800867
vn -0.766076 -0.592578 0.248909
vn -0.761681 0.598773 0.247475
vn -0.473464 -0.592578 -0.651662
vn -0.470748 0.598804 -0.647908
vn 0.473464 -0.592578 -0.651662
vn 0.766076 -0.592578 0.248909
vn 0.761681 0.598773 0.247475
vn 0.470748 0.598804 -0.647908
g Cylinder.019_Cylinder.007_Wood
usemtl Wood
s 1
f 31//31 32//32 33//33
f 33//33 34//34 35//35
f 35//35 36//36 37//37
f 34//34 32//32 36//36
f 39//38 40//39 31//31
f 37//37 38//40 39//38
f 39//38 35//35 37//37
f 32//32 34//34 33//33
f 34//34 36//36 35//35
f 36//36 38//40 37//37
f 32//32 40//39 36//36
f 40//39 38//40 36//36
f 40//39 32//32 31//31
f 38//40 40//39 39//38
f 31//31 33//33 39//38
f 33//33 35//35 39//38
v 0.741418 4.585374 0.139391
v -0.701988 4.585374 0.139391
v 0.741418 4.536680 0.104012
v -0.701988 4.536680 0.104012
v 0.741418 4.555280 0.046769
v -0.701988 4.555280 0.046769
v 0.741418 4.615469 0.046769
v -0.701988 4.615469 0.046769
v 0.741418 4.634068 0.104012
v -0.701988 4.634068 0.104012
vn 0.595691 0.000000 0.803186
vn -0.595691 0.000000 0.803186
vn 0.595691 -0.763878 0.248177
vn -0.595691 -0.763878 0.248207
vn 0.595691 -0.472091 -0.649800
vn -0.595691 -0.472091 -0.649800
vn 0.595691 0.472091 -0.649800
vn -0.595691 0.763878 0.248177
vn 0.595691 0.763878 0.248207
vn -0.595691 0.472091 -0.649800
g Cylinder.020_Cylinder.008_Wood
usemtl Wood
s 1
f 41//41 42//42 43//43
f 43//43 44//44 45//45
f 45//45 46//46 47//47
f 44//44 42//42 50//48
f 49//49 50//48 41//41
f 47//47 48//50 49//49
f 41//41 43//43 49//49
f 42//42 44//44 43//43
f 44//44 46//46 45//45
f 46//46 48//50 47//47
f 46//46 44//44 48//50
f 44//44 50//48 48//50
f 50//48 42//42 41//41
f 48//50 50//48 49//49
f 43//43 45//45 49//49
f 45//45 47//47 49//49
v -0.792955 3.275765 0.089929
v 0.816751 3.275766 0.089929
v -0.665220 4.532256 0.097919
v 0.689016 4.532256 0.097919
v 0.011898 3.395592 0.132532
v 0.011898 4.532256 0.119313
v 0.752883 3.973384 0.297596
v -0.729087 3.973384 0.297595
v 0.011898 3.973384 0.411681
v 0.414325 3.379538 0.089929
v 0.350457 4.532256 0.122303
v 0.784817 3.649876 0.227200
v -0.697153 4.278121 0.246709
v -0.390528 3.379538 0.089929
v -0.326661 4.532256 0.122303
v 0.720950 4.278121 0.246709
v -0.761021 3.649876 0.227200
v 0.011898 4.278184 0.380066
v 0.011898 3.743996 0.366763
v 0.382391 3.973384 0.391987
v -0.358595 3.973384 0.391986
v -0.342628 4.278169 0.360676
v 0.366424 4.278169 0.360676
v 0.398358 3.724334 0.325430
v -0.374561 3.724333 0.325430
v -0.792955 3.275765 0.089929
v 0.816751 3.275766 0.089929
v -0.665220 4.532256 0.097919
v 0.689016 4.532256 0.097919
v 0.011898 3.395592 0.132532
v 0.011898 4.532256 0.119313
v 0.752883 3.973384 0.297596
v -0.729087 3.973384 0.297595
v 0.011898 3.973384 0.411681
v 0.414325 3.379538 0.089929
v 0.350457 4.532256 0.122303
v 0.784817 3.649876 0.227200
v -0.697153 4.278121 0.246709
v -0.390528 3.379538 0.089929
v -0.326661 4.532256 0.122303
v 0.720950 4.278121 0.246709
v -0.761021 3.649876 0.227200
v 0.011898 4.278184 0.380066
v 0.011898 3.743996 0.366763
v 0.382391 3.973384 0.391987
v -0.358595 3.973384 0.391986
v -0.342628 4.278169 0.360676
v 0.366424 4.278169 0.360676
v 0.398358 3.724334 0.325430
v -0.374561 3.724333 0.325430
vn 0.127567 -0.402722 -0.906369
vn 0.286115 -0.355295 -0.889890
vn 0.163814 -0.600995 -0.782285
vn -0.127567 -0.402722 -0.906369
vn 0.000000 -0.431532 -0.902066
vn 0.000000 -0.700463 -0.713689
vn -0.093051 0.375317 -0.922178
vn 0.000000 0.373669 -0.927549
vn 0.000000 0.056673 -0.998383
vn 0.093051 0.375317 -0.922178
vn 0.194065 0.279166 -0.940428
vn 0.142979 0.064669 -0.987579
vn 0.262376 0.025519 -0.964628
vn -0.286114 -0.355295 -0.889890
vn -0.163814 -0.600995 -0.782285
vn -0.262376 0.025519 -0.964628
vn -0.142979 0.064669 -0.987579
vn -0.194065 0.279167 -0.940428
vn -0.009025 0.458207 -0.888800
vn 0.053446 0.563963 -0.824068
vn 0.000000 0.557930 -0.829888
vn -0.053446 0.563964 -0.824068
vn 0.009025 0.458207 -0.888799
vn -0.022512 0.684774 0.728408
vn -0.163814 0.600995 0.782285
vn -0.127567 0.402722 0.906369
vn 0.022512 0.684774 0.728408
vn -0.000000 0.700463 0.713689
vn 0.127567 0.402722 0.906369
vn 0.142979 -0.064669 0.987579
vn 0.000000 -0.056673 0.998383
vn 0.093051 -0.375317 0.922178
vn -0.142979 -0.064669 0.987579
vn -0.262377 -0.025519 0.964628
vn -0.194066 -0.279166 0.940428
vn 0.000000 0.431532 0.902066
vn -0.286115 0.355295 0.889890
vn 0.163814 0.600995 0.782285
vn 0.286114 0.355295 0.889890
vn 0.262376 -0.025519 0.964628
vn 0.194065 -0.279167 0.940428
vn 0.009025 -0.458207 0.888800
vn 0.000000 -0.373669 0.927549
vn -0.053446 -0.563963 0.824069
vn -0.093051 -0.375317 0.922178
vn 0.053446 -0.563964 0.824068
vn -0.009025 -0.458207 0.888799
vn 0.022512 -0.684774 -0.728408
vn -0.022512 -0.684774 -0.728408
vn -0.000000 -0.557930 0.829888
g Plane.009_Plane.000_SailCloth
usemtl SailCloth
s 1
f 72//51 63//52 53//53
f 73//54 68//55 56//56
f 74//57 69//58 59//59
f 75//60 67//61 71//62
f 68//55 72//51 56//56
f 59//59 71//62 68//55
f 71//62 58//63 72//51
f 66//64 73//54 54//65
f 57//66 70//67 73//54
f 70//67 59//59 68//55
f 62//68 74//57 70//67
f 52//69 60//70 74//57
f 60//70 55//71 69//58
f 69//58 75//60 59//59
f 55//71 64//72 69//58
f 64//72 51//73 75//60
f 90//74 78//75 97//76
f 86//77 81//78 98//79
f 95//80 84//81 99//82
f 96//83 83//84 92//85
f 81//78 90//74 97//76
f 93//86 97//76 96//83
f 97//76 88//87 83//84
f 79//88 86//77 98//79
f 91//89 98//79 82//90
f 98//79 93//86 95//80
f 82//90 95//80 87//91
f 87//91 99//82 77//92
f 99//82 94//93 85//94
f 84//81 96//83 100//95
f 94//93 100//95 89//96
f 100//95 92//85 76//97
f 65//98 72//51 53//53
f 61//99 73//54 56//56
f 70//67 74//57 59//59
f 67//61 58//63 71//62
f 72//51 65//98 56//56
f 71//62 72//51 68//55
f 58//63 63//52 72//51
f 73//54 61//99 54//65
f 66//64 57//66 73//54
f 73//54 70//67 68//55
f 57//66 62//68 70//67
f 62//68 52//69 74//57
f 74//57 60//70 69//58
f 75//60 71//62 59//59
f 64//72 75//60 69//58
f 51//73 67//61 75//60
f 78//75 88//87 97//76
f 81//78 93//86 98//79
f 84//81 94//93 99//82
f 100//95 96//83 92//85
f 93//86 81//78 97//76
f 84//81 93//86 96//83
f 96//83 97//76 83//84
f 91//89 79//88 98//79
f 98//79 95//80 82//90
f 93//86 84//81 95//80
f 95//80 99//82 87//91
f 99//82 85//94 77//92
f 94//93 80//100 85//94
f 94//93 84//81 100//95
f 80//100 94//93 89//96
f 89//96 100//95 76//97
v 0.914264 3.079595 0.180458
v -0.879115 3.079595 0.180458
v 0.914264 3.019094 0.136502
v -0.879115 3.019094 0.136501
v 0.914264 3.042204 0.065378
v -0.879115 3.042203 0.065378
v 0.914264 3.116987 0.065378
v -0.879115 3.116987 0.065378
v 0.914264 3.140096 0.136502
v -0.879115 3.140096 0.136501
vn 0.595691 0.000000 0.803186
vn -0.595691 0.000000 0.803186
vn 0.595691 -0.763878 0.248177
vn -0.595691 -0.763878 0.248177
vn 0.595691 -0.472091 -0.649800
vn -0.595691 -0.472091 -0.649800
vn 0.595691 0.472091 -0.649800
vn -0.595691 0.763878 0.248177
vn -0.595691 0.472091 -0.649800
vn 0.595691 0.763878 0.248207
g Cylinder.021_Cylinder.009_Wood
usemtl Wood
s 1
f 101//101 102//102 103//103
f 103//103 104//104 105//105
f 105//105 106//106 107//107
f 102//102 110//108 108//109
f 109//110 110//108 101//101
f 107//107 108//109 109//110
f 101//101 103//103 105//105
f 102//102 104//104 103//103
f 104//104 106//106 105//105
f 106//106 108//109 107//107
f 104//104 102//102 106//106
f 102//102 108//109 106//106
f 110//108 102//102 101//101
f 108//109 110//108 109//110
f 109//110 101//101 107//107
f 101//101 105//105 107//107
