# Blender v2.69 (sub 0) OBJ File: 'ship_split.blend'
# www.blender.org
mtllib ship.mtl
v -0.016335 0.000680 0.073977
v -0.016335 3.800739 0.039461
v -0.081779 0.000680 0.026429
v -0.048952 3.800739 0.015763
v -0.056781 0.000680 -0.050504
v -0.036494 3.800739 -0.022581
v 0.024111 0.000680 -0.050504
v 0.003823 3.800739 -0.022580
v 0.049108 0.000680 0.026429
v 0.016282 3.800739 0.015763
vn 0.000000 -0.592273 0.805719
vn 0.000000 0.599078 0.800653
vn -0.766259 -0.592273 0.248970
vn -0.761467 0.599078 0.247414
vn -0.473586 -0.592273 -0.651814
vn -0.470626 0.599078 -0.647755
vn 0.473586 -0.592273 -0.651814
vn 0.470626 0.599078 -0.647755
vn 0.766259 -0.592273 0.248970
vn 0.761467 0.599078 0.247414
g Cylinder.064_Cylinder_Wood
usemtl Wood
s 1
f 1//1 2//2 3//3
f 3//3 4//4 5//5
f 5//5 6//6 7//7
f 6//6 4//4 8//8
f 9//9 10//10 1//1
f 7//7 8//8 9//9
f 1//1 3//3 5//5
f 2//2 4//4 3//3
f 4//4 6//6 5//5
f 6//6 8//8 7//7
f 4//4 2//2 8//8
f 2//2 10//10 8//8
f 10//10 2//2 1//1
f 8//8 10//10 9//9
f 9//9 1//1 7//7
f 1//1 5//5 7//7
v 0.819335 2.240931 0.134701
v -0.799648 2.240931 0.134701
v 0.819335 2.179947 0.095020
v -0.799648 2.179947 0.095019
v 0.819335 2.203241 0.030813
v -0.799648 2.203241 0.030813
v 0.819335 2.278621 0.030813
v -0.799648 2.278621 0.030813
v 0.819335 2.301915 0.095020
v -0.799648 2.301915 0.095019
vn 0.602496 0.000000 0.798090
vn -0.602496 0.000000 0.798090
vn 0.590320 -0.765404 0.256142
vn -0.590320 -0.765404 0.256142
vn 0.597888 -0.460097 -0.656362
vn -0.597888 -0.460097 -0.656362
vn 0.597888 0.460097 -0.656362
vn -0.590320 0.765404 0.256142
vn -0.597888 0.460097 -0.656362
vn 0.590320 0.765404 0.256142
g Cylinder.065_Cylinder.001_Wood
usemtl Wood
s 1
f 11//11 12//12 13//13
f 13//13 14//14 15//15
f 15//15 16//16 17//17
f 12//12 20//18 18//19
f 19//20 20//18 11//11
f 17//17 18//19 19//20
f 19//20 11//11 17//17
f 12//12 14//14 13//13
f 14//14 16//16 15//15
f 16//16 18//19 17//17
f 14//14 12//12 18//19
f 16//16 14//14 18//19
f 20//18 12//12 11//11
f 18//19 20//18 19//20
f 11//11 13//13 17//17
f 13//13 15//15 17//17
v -0.902835 1.094468 0.066820
v 0.902675 1.094468 0.066821
v -0.759563 2.170693 0.075782
v 0.759403 2.170693 0.075783
v -0.000080 1.197103 0.114606
v -0.000080 2.170693 0.099779
v 0.831039 1.692001 0.299748
v -0.831199 1.692001 0.299747
v -0.000080 1.692001 0.427710
v 0.451298 1.183352 0.066820
v 0.379661 2.170693 0.103132
v 0.866857 1.414905 0.220789
v -0.795381 1.953018 0.242671
v -0.451458 1.183352 0.066820
v -0.379821 2.170693 0.103132
v 0.795221 1.953018 0.242671
v -0.867017 1.414905 0.220789
v -0.000080 1.953072 0.392249
v -0.000080 1.495522 0.377328
v 0.415479 1.692001 0.405620
v -0.415640 1.692001 0.405620
v -0.397731 1.953058 0.370501
v 0.397570 1.953058 0.370501
v 0.433388 1.478680 0.330968
v -0.433549 1.478680 0.330968
v -0.902835 1.094468 0.066820
v 0.902675 1.094468 0.066821
v -0.759563 2.170693 0.075782
v 0.759403 2.170693 0.075783
v -0.000080 1.197103 0.114606
v -0.000080 2.170693 0.099779
v 0.831039 1.692001 0.299748
v -0.831199 1.692001 0.299747
v -0.000080 1.692001 0.427710
v 0.451298 1.183352 0.066820
v 0.379661 2.170693 0.103132
v 0.866857 1.414905 0.220789
v -0.795381 1.953018 0.242671
v -0.451458 1.183352 0.066820
v -0.379821 2.170693 0.103132
v 0.795221 1.953018 0.242671
v -0.867017 1.414905 0.220789
v -0.000080 1.953072 0.392249
v -0.000080 1.495522 0.377328
v 0.415479 1.692001 0.405620
v -0.415640 1.692001 0.405620
v -0.397731 1.953058 0.370501
v 0.397570 1.953058 0.370501
v 0.433388 1.478680 0.330968
v -0.433549 1.478680 0.330968
vn 0.120579 -0.476363 -0.870907
vn 0.275101 -0.438412 -0.855637
vn 0.157047 -0.692460 -0.704156
vn -0.120579 -0.476363 -0.870907
vn 0.000000 -0.502701 -0.864437
vn 0.000000 -0.790230 -0.612811
vn -0.086276 0.467330 -0.879849
vn 0.000000 0.457625 -0.889126
vn 0.000000 0.069826 -0.997528
vn 0.086276 0.467330 -0.879849
vn 0.190452 0.353179 -0.915965
vn 0.141820 0.083895 -0.986297
vn 0.264117 0.033581 -0.963906
vn -0.275101 -0.438412 -0.855637
vn -0.157047 -0.692460 -0.704156
vn -0.264117 0.033581 -0.963906
vn -0.141820 0.083895 -0.986297
vn -0.190452 0.353179 -0.915966
vn -0.026677 0.543998 -0.838662
vn 0.047087 0.666688 -0.743848
vn 0.000000 0.660789 -0.750572
vn -0.047087 0.666689 -0.743848
vn 0.026678 0.543998 -0.838662
vn -0.019427 0.776041 0.630383
vn -0.157047 0.692460 0.704156
vn -0.120579 0.476363 0.870907
vn 0.019427 0.776041 0.630383
vn -0.000000 0.790229 0.612811
vn 0.120579 0.476363 0.870907
vn 0.141820 -0.083895 0.986297
vn 0.000000 -0.069826 0.997528
vn 0.086276 -0.467330 0.879849
vn -0.141820 -0.083895 0.986297
vn -0.264117 -0.033581 0.963906
vn -0.190452 -0.353179 0.915966
vn 0.000000 0.502701 0.864437
vn -0.275101 0.438412 0.855637
vn 0.157047 0.692460 0.704156
vn 0.275101 0.438412 0.855637
vn 0.264117 -0.033581 0.963906
vn 0.190452 -0.353179 0.915966
vn 0.026677 -0.543998 0.838662
vn 0.000000 -0.457625 0.889126
vn -0.047087 -0.666688 0.743848
vn -0.086276 -0.467330 0.879849
vn 0.047087 -0.666689 0.743848
vn -0.026678 -0.543998 0.838662
vn 0.019427 -0.776041 -0.630383
vn -0.019427 -0.776041 -0.630383
vn -0.000000 -0.660789 0.750572
g Plane.016_Plane.001_SailCloth
usemtl SailCloth
s 1
f 42//21 33//22 23//23
f 43//24 38//25 26//26
f 44//27 39//28 29//29
f 45//30 37//31 41//32
f 38//25 42//21 26//26
f 29//29 41//32 38//25
f 41//32 28//33 42//21
f 36//34 43//24 24//35
f 27//36 40//37 43//24
f 40//37 29//29 38//25
f 32//38 44//27 40//37
f 22//39 30//40 44//27
f 30//40 25//41 39//28
f 39//28 45//30 29//29
f 25//41 34//42 39//28
f 34//42 21//43 45//30
f 60//44 48//45 67//46
f 56//47 51//48 68//49
f 65//50 54//51 69//52
f 66//53 53//54 62//55
f 51//48 60//44 67//46
f 63//56 67//46 66//53
f 67//46 58//57 53//54
f 49//58 56//47 68//49
f 61//59 68//49 52//60
f 68//49 63//56 65//50
f 52//60 65//50 57//61
f 57//61 69//52 47//62
f 69//52 64//63 55//64
f 54//51 66//53 70//65
f 64//63 70//65 59//66
f 70//65 62//55 46//67
f 35//68 42//21 23//23
f 31//69 43//24 26//26
f 40//37 44//27 29//29
f 37//31 28//33 41//32
f 42//21 35//68 26//26
f 41//32 42//21 38//25
f 28//33 33//22 42//21
f 43//24 31//69 24//35
f 36//34 27//36 43//24
f 43//24 40//37 38//25
f 27//36 32//38 40//37
f 32//38 22//39 44//27
f 44//27 30//40 39//28
f 45//30 41//32 29//29
f 34//42 45//30 39//28
f 21//43 37//31 45//30
f 48//45 58//57 67//46
f 51//48 63//56 68//49
f 54//51 64//63 69//52
f 70//65 66//53 62//55
f 63//56 51//48 67//46
f 54//51 63//56 66//53
f 66//53 67//46 53//54
f 61//59 49//58 68//49
f 68//49 65//50 52//60
f 63//56 54//51 65//50
f 65//50 69//52 57//61
f 69//52 55//64 47//62
f 64//63 50//70 55//64
f 64//63 54//51 70//65
f 50//70 64//63 59//66
f 59//66 70//65 46//67
v 0.663297 3.413430 0.097628
v -0.639745 3.413430 0.097628
v 0.663297 3.364347 0.065690
v -0.639745 3.364347 0.065690
v 0.663297 3.383095 0.014013
v -0.639745 3.383095 0.014013
v 0.663297 3.443765 0.014013
v -0.639745 3.443765 0.014013
v 0.663297 3.462514 0.065690
v -0.639745 3.462514 0.065690
vn 0.602496 0.000000 0.798090
vn -0.602496 0.000000 0.798090
vn 0.590320 -0.765404 0.256142
vn -0.590320 -0.765404 0.256142
vn 0.597888 -0.460097 -0.656362
vn -0.597888 -0.460097 -0.656362
vn 0.597888 0.460097 -0.656362
vn 0.590320 0.765404 0.256142
vn -0.590320 0.765404 0.256142
vn -0.597888 0.460097 -0.656362
g Cylinder.066_Cylinder.001_Wood
usemtl Wood
s 1
f 71//71 72//72 73//73
f 73//73 74//74 75//75
f 75//75 76//76 77//77
f 74//74 72//72 76//76
f 79//78 80//79 71//71
f 77//77 78//80 79//78
f 79//78 71//71 77//77
f 72//72 74//74 73//73
f 74//74 76//76 75//75
f 76//76 78//80 77//77
f 72//72 80//79 76//76
f 80//79 78//80 76//76
f 80//79 72//72 71//71
f 78//80 80//79 79//78
f 71//71 73//73 77//77
f 73//73 75//75 77//77
v -0.721866 2.404243 0.052976
v 0.731304 2.404243 0.052976
v -0.606553 3.365992 0.060189
v 0.615991 3.365992 0.060189
v 0.004719 2.495961 0.091436
v 0.004719 3.365992 0.079503
v 0.673647 2.938217 0.240448
v -0.664209 2.938217 0.240448
v 0.004719 2.938217 0.343439
v 0.368012 2.483673 0.052976
v 0.310355 3.365992 0.082201
v 0.702476 2.690596 0.176898
v -0.635381 3.171470 0.194510
v -0.358573 2.483673 0.052976
v -0.300917 3.365992 0.082201
v 0.644819 3.171470 0.194510
v -0.693038 2.690596 0.176898
v 0.004719 3.171519 0.314898
v 0.004719 2.762638 0.302889
v 0.339183 2.938217 0.325660
v -0.329745 2.938217 0.325660
v -0.315331 3.171507 0.297394
v 0.324769 3.171507 0.297394
v 0.353597 2.747588 0.265576
v -0.344159 2.747588 0.265576
v -0.721866 2.404243 0.052976
v 0.731304 2.404243 0.052976
v -0.606553 3.365992 0.060189
v 0.615991 3.365992 0.060189
v 0.004719 2.495961 0.091436
v 0.004719 3.365992 0.079503
v 0.673647 2.938217 0.240448
v -0.664209 2.938217 0.240448
v 0.004719 2.938217 0.343439
v 0.368012 2.483673 0.052976
v 0.310355 3.365992 0.082201
v 0.702476 2.690596 0.176898
v -0.635381 3.171470 0.194510
v -0.358573 2.483673 0.052976
v -0.300917 3.365992 0.082201
v 0.644819 3.171470 0.194510
v -0.693038 2.690596 0.176898
v 0.004719 3.171519 0.314898
v 0.004719 2.762638 0.302889
v 0.339183 2.938217 0.325660
v -0.329745 2.938217 0.325660
v -0.315331 3.171507 0.297394
v 0.324769 3.171507 0.297394
v 0.353597 2.747588 0.265576
v -0.344159 2.747588 0.265576
vn 0.123264 -0.447829 -0.885556
vn 0.279835 -0.405174 -0.870360
vn 0.160566 -0.657461 -0.736182
vn -0.123264 -0.447829 -0.885556
vn 0.000000 -0.475326 -0.879788
vn 0.000000 -0.757426 -0.652921
vn -0.088870 0.430616 -0.898129
vn 0.000000 0.424268 -0.905515
vn 0.000000 0.064425 -0.997894
vn 0.088870 0.430616 -0.898129
vn 0.192167 0.322779 -0.926761
vn 0.142277 0.075991 -0.986877
vn 0.263491 0.030044 -0.964194
vn -0.279835 -0.405174 -0.870360
vn -0.160566 -0.657461 -0.736182
vn -0.263491 0.030044 -0.964194
vn -0.142277 0.075991 -0.986877
vn -0.192167 0.322779 -0.926761
vn -0.020309 0.510096 -0.859878
vn 0.049614 0.627331 -0.777170
vn 0.000000 0.621306 -0.783568
vn -0.049614 0.627331 -0.777171
vn 0.020309 0.510096 -0.859878
vn -0.020657 0.742431 0.669603
vn -0.160566 0.657461 0.736182
vn -0.123264 0.447829 0.885556
vn 0.020657 0.742431 0.669604
vn -0.000000 0.757426 0.652921
vn 0.123264 0.447829 0.885556
vn 0.142277 -0.075991 0.986877
vn 0.000000 -0.064425 0.997894
vn 0.088870 -0.430616 0.898129
vn -0.142277 -0.075991 0.986877
vn -0.263491 -0.030044 0.964194
vn -0.192167 -0.322780 0.926761
vn 0.000000 0.475326 0.879788
vn -0.279836 0.405174 0.870360
vn 0.160566 0.657461 0.736182
vn 0.279835 0.405174 0.870360
vn 0.263491 -0.030044 0.964194
vn 0.192167 -0.322779 0.926761
vn 0.020309 -0.510096 0.859878
vn 0.000000 -0.424268 0.905515
vn -0.049614 -0.627331 0.777170
vn -0.088870 -0.430616 0.898129
vn 0.049614 -0.627331 0.777171
vn -0.020309 -0.510096 0.859878
vn 0.020657 -0.742431 -0.669604
vn -0.020657 -0.742431 -0.669604
vn -0.000000 -0.621306 0.783568
g Plane.017_Plane.001_SailCloth
usemtl SailCloth
s 1
f 102//81 93//82 83//83
f 103//84 98//85 86//86
f 104//87 99//88 89//89
f 105//90 97//91 101//92
f 98//85 102//81 86//86
f 89//89 101//92 98//85
f 101//92 88//93 102//81
f 96//94 103//84 84//95
f 87//96 100//97 103//84
f 100//97 89//89 98//85
f 92//98 104//87 100//97
f 82//99 90//100 104//87
f 90//100 85//101 99//88
f 99//88 105//90 89//89
f 85//101 94//102 99//88
f 94//102 81//103 105//90
f 120//104 108//105 127//106
f 116//107 111//108 128//109
f 125//110 114//111 129//112
f 126//113 113//114 122//115
f 111//108 120//104 127//106
f 123//116 127//106 126//113
f 127//106 118//117 113//114
f 109//118 116//107 128//109
f 121//119 128//109 112//120
f 128//109 123//116 125//110
f 112//120 125//110 117//121
f 117//121 129//112 107//122
f 129//112 124//123 115//124
f 114//111 126//113 130//125
f 124//123 130//125 119//126
f 130//125 122//115 106//127
f 95//128 102//81 83//83
f 91//129 103//84 86//86
f 100//97 104//87 89//89
f 97//91 88//93 101//92
f 102//81 95//128 86//86
f 101//92 102//81 98//85
f 88//93 93//82 102//81
f 103//84 91//129 84//95
f 96//94 87//96 103//84
f 103//84 100//97 98//85
f 87//96 92//98 100//97
f 92//98 82//99 104//87
f 104//87 90//100 99//88
f 105//90 101//92 89//89
f 94//102 105//90 99//88
f 81//103 97//91 105//90
f 108//105 118//117 127//106
f 111//108 123//116 128//109
f 114//111 124//123 129//112
f 130//125 126//113 122//115
f 123//116 111//108 127//106
f 114//111 123//116 126//113
f 126//113 127//106 113//114
f 121//119 109//118 128//109
f 128//109 125//110 112//120
f 123//116 114//111 125//110
f 125//110 129//112 117//121
f 129//112 115//124 107//122
f 124//123 110//130 115//124
f 124//123 114//111 130//125
f 110//130 124//123 119//126
f 119//126 130//125 106//127
