# Blender v2.69 (sub 0) OBJ File: 'ship_split.blend'
# www.blender.org
mtllib ship.mtl
v -0.772215 2.115521 0.118192
v 0.805048 2.099728 0.118815
v -0.773452 2.067446 0.145957
v 0.803825 2.052193 0.146268
v -0.773452 2.067446 0.201487
v 0.803825 2.052193 0.201175
v -0.772215 2.115521 0.229252
v 0.805048 2.099728 0.228629
v -0.770978 2.163595 0.201487
v 0.806271 2.147263 0.201175
v -0.770978 2.163595 0.145957
v 0.806271 2.147263 0.146268
v -0.015891 2.061725 0.056868
v -0.018495 1.960561 0.115295
v -0.018495 1.960561 0.232148
v -0.015891 2.061725 0.290575
v -0.013288 2.162890 0.232148
v -0.013288 2.162890 0.115295
v -0.398575 1.912900 0.105082
v -0.398575 1.912900 0.242362
v -0.395517 2.031749 0.311002
v -0.392459 2.150598 0.242362
v -0.392459 2.150598 0.105082
v -0.395517 2.031749 0.036441
v 0.393086 2.022728 0.040481
v 0.390118 1.907376 0.107101
v 0.390118 1.907376 0.240342
v 0.393086 2.022728 0.306963
v 0.396054 2.138080 0.240342
v 0.396054 2.138080 0.107101
vn 0.075747 -0.042207 -0.996216
vn 0.675069 0.035707 -0.736869
vn 0.099734 -0.871334 -0.480422
vn 0.724754 -0.588427 -0.358348
vn 0.099734 -0.871334 0.480422
vn 0.724754 -0.588427 0.358348
vn 0.675069 0.035707 0.736869
vn 0.075747 -0.042207 0.996216
vn 0.628559 0.682791 0.372387
vn 0.036714 0.853847 -0.519211
vn 0.628559 0.682791 -0.372387
vn 0.036714 0.853847 0.519211
vn -0.757012 -0.548631 -0.354808
vn -0.757012 -0.548631 0.354808
vn -0.682058 0.066042 0.728263
vn -0.080203 -0.040895 -0.995911
vn 0.006745 0.028077 -0.999573
vn -0.126591 -0.868038 -0.480056
vn 0.000519 -0.858669 -0.512467
vn -0.126591 -0.868038 0.480056
vn 0.000519 -0.858669 0.512467
vn 0.006745 0.028077 0.999573
vn -0.080203 -0.040895 0.995911
vn 0.013916 0.872646 0.488083
vn -0.020631 0.854030 -0.519761
vn 0.013916 0.872646 -0.488083
vn -0.020631 0.854030 0.519761
vn -0.682058 0.066042 -0.728263
vn -0.608234 0.703116 0.368267
vn -0.608234 0.703116 -0.368267
g Cylinder.071_Cylinder.011_SailCloth
usemtl SailCloth
s 1
f 25//1 2//2 26//3
f 26//3 4//4 27//5
f 27//5 6//6 8//7
f 28//8 8//7 10//9
f 4//4 2//2 6//6
f 30//10 12//11 25//1
f 29//12 10//9 30//10
f 3//13 5//14 7//15
f 24//16 13//17 19//18
f 19//18 14//19 20//20
f 20//20 15//21 16//22
f 21//23 16//22 17//24
f 23//25 18//26 24//16
f 22//27 17//24 23//25
f 1//28 24//16 19//18
f 3//13 19//18 5//14
f 5//14 20//20 7//15
f 7//15 21//23 9//29
f 11//30 23//25 24//16
f 9//29 22//27 11//30
f 13//17 25//1 26//3
f 14//19 26//3 15//21
f 15//21 27//5 16//22
f 16//22 28//8 17//24
f 18//26 30//10 25//1
f 17//24 29//12 18//26
f 2//2 4//4 26//3
f 4//4 6//6 27//5
f 28//8 27//5 8//7
f 29//12 28//8 10//9
f 2//2 12//11 10//9
f 6//6 2//2 8//7
f 2//2 10//9 8//7
f 12//11 2//2 25//1
f 10//9 12//11 30//10
f 1//28 3//13 7//15
f 11//30 1//28 9//29
f 1//28 7//15 9//29
f 13//17 14//19 19//18
f 14//19 15//21 20//20
f 21//23 20//20 16//22
f 22//27 21//23 17//24
f 18//26 13//17 24//16
f 17//24 18//26 23//25
f 3//13 1//28 19//18
f 19//18 20//20 5//14
f 20//20 21//23 7//15
f 21//23 22//27 9//29
f 1//28 11//30 24//16
f 22//27 23//25 11//30
f 14//19 13//17 26//3
f 26//3 27//5 15//21
f 27//5 28//8 16//22
f 28//8 29//12 17//24
f 13//17 18//26 25//1
f 29//12 30//10 18//26
v -0.016335 0.000680 0.073977
v -0.016335 3.800739 0.039461
v -0.081779 0.000680 0.026429
v -0.048952 3.800739 0.015763
v -0.056781 0.000680 -0.050504
v -0.036494 3.800739 -0.022581
v 0.024111 0.000680 -0.050504
v 0.003823 3.800739 -0.022580
v 0.049108 0.000680 0.026429
v 0.016282 3.800739 0.015763
vn 0.000000 -0.592273 0.805719
vn 0.000000 0.599078 0.800653
vn -0.766259 -0.592273 0.248970
vn -0.761467 0.599078 0.247414
vn -0.473586 -0.592273 -0.651814
vn -0.470626 0.599078 -0.647755
vn 0.473586 -0.592273 -0.651814
vn 0.470626 0.599078 -0.647755
vn 0.766259 -0.592273 0.248970
vn 0.761467 0.599078 0.247414
g Cylinder.068_Cylinder_Wood
usemtl Wood
s 1
f 31//31 32//32 33//33
f 33//33 34//34 35//35
f 35//35 36//36 37//37
f 36//36 34//34 38//38
f 39//39 40//40 31//31
f 37//37 38//38 39//39
f 31//31 33//33 35//35
f 32//32 34//34 33//33
f 34//34 36//36 35//35
f 36//36 38//38 37//37
f 34//34 32//32 38//38
f 32//32 40//40 38//38
f 40//40 32//32 31//31
f 38//38 40//40 39//39
f 39//39 31//31 37//37
f 31//31 35//35 37//37
v 0.819335 2.240931 0.134701
v -0.799648 2.240931 0.134701
v 0.819335 2.179947 0.095020
v -0.799648 2.179947 0.095019
v 0.819335 2.203241 0.030813
v -0.799648 2.203241 0.030813
v 0.819335 2.278621 0.030813
v -0.799648 2.278621 0.030813
v 0.819335 2.301915 0.095020
v -0.799648 2.301915 0.095019
vn 0.602496 0.000000 0.798090
vn -0.602496 0.000000 0.798090
vn 0.590320 -0.765404 0.256142
vn -0.590320 -0.765404 0.256142
vn 0.597888 -0.460097 -0.656362
vn -0.597888 -0.460097 -0.656362
vn 0.597888 0.460097 -0.656362
vn -0.590320 0.765404 0.256142
vn -0.597888 0.460097 -0.656362
vn 0.590320 0.765404 0.256142
g Cylinder.069_Cylinder.001_Wood
usemtl Wood
s 1
f 41//41 42//42 43//43
f 43//43 44//44 45//45
f 45//45 46//46 47//47
f 42//42 50//48 48//49
f 49//50 50//48 41//41
f 47//47 48//49 49//50
f 49//50 41//41 47//47
f 42//42 44//44 43//43
f 44//44 46//46 45//45
f 46//46 48//49 47//47
f 44//44 42//42 48//49
f 46//46 44//44 48//49
f 50//48 42//42 41//41
f 48//49 50//48 49//50
f 41//41 43//43 47//47
f 43//43 45//45 47//47
v 0.663297 3.413430 0.097628
v -0.639745 3.413430 0.097628
v 0.663297 3.364347 0.065690
v -0.639745 3.364347 0.065690
v 0.663297 3.383095 0.014013
v -0.639745 3.383095 0.014013
v 0.663297 3.443765 0.014013
v -0.639745 3.443765 0.014013
v 0.663297 3.462514 0.065690
v -0.639745 3.462514 0.065690
vn 0.602496 0.000000 0.798090
vn -0.602496 0.000000 0.798090
vn 0.590320 -0.765404 0.256142
vn -0.590320 -0.765404 0.256142
vn 0.597888 -0.460097 -0.656362
vn -0.597888 -0.460097 -0.656362
vn 0.597888 0.460097 -0.656362
vn 0.590320 0.765404 0.256142
vn -0.590320 0.765404 0.256142
vn -0.597888 0.460097 -0.656362
g Cylinder.070_Cylinder.001_Wood
usemtl Wood
s 1
f 51//51 52//52 53//53
f 53//53 54//54 55//55
f 55//55 56//56 57//57
f 54//54 52//52 56//56
f 59//58 60//59 51//51
f 57//57 58//60 59//58
f 59//58 51//51 57//57
f 52//52 54//54 53//53
f 54//54 56//56 55//55
f 56//56 58//60 57//57
f 52//52 60//59 56//56
f 60//59 58//60 56//56
f 60//59 52//52 51//51
f 58//60 60//59 59//58
f 51//51 53//53 57//57
f 53//53 55//55 57//57
v -0.721866 2.404243 0.052976
v 0.731304 2.404243 0.052976
v -0.606553 3.365992 0.060189
v 0.615991 3.365992 0.060189
v 0.004719 2.495961 0.091436
v 0.004719 3.365992 0.079503
v 0.673647 2.938217 0.240448
v -0.664209 2.938217 0.240448
v 0.004719 2.938217 0.343439
v 0.368012 2.483673 0.052976
v 0.310355 3.365992 0.082201
v 0.702476 2.690596 0.176898
v -0.635381 3.171470 0.194510
v -0.358573 2.483673 0.052976
v -0.300917 3.365992 0.082201
v 0.644819 3.171470 0.194510
v -0.693038 2.690596 0.176898
v 0.004719 3.171519 0.314898
v 0.004719 2.762638 0.302889
v 0.339183 2.938217 0.325660
v -0.329745 2.938217 0.325660
v -0.315331 3.171507 0.297394
v 0.324769 3.171507 0.297394
v 0.353597 2.747588 0.265576
v -0.344159 2.747588 0.265576
v -0.721866 2.404243 0.052976
v 0.731304 2.404243 0.052976
v -0.606553 3.365992 0.060189
v 0.615991 3.365992 0.060189
v 0.004719 2.495961 0.091436
v 0.004719 3.365992 0.079503
v 0.673647 2.938217 0.240448
v -0.664209 2.938217 0.240448
v 0.004719 2.938217 0.343439
v 0.368012 2.483673 0.052976
v 0.310355 3.365992 0.082201
v 0.702476 2.690596 0.176898
v -0.635381 3.171470 0.194510
v -0.358573 2.483673 0.052976
v -0.300917 3.365992 0.082201
v 0.644819 3.171470 0.194510
v -0.693038 2.690596 0.176898
v 0.004719 3.171519 0.314898
v 0.004719 2.762638 0.302889
v 0.339183 2.938217 0.325660
v -0.329745 2.938217 0.325660
v -0.315331 3.171507 0.297394
v 0.324769 3.171507 0.297394
v 0.353597 2.747588 0.265576
v -0.344159 2.747588 0.265576
vn 0.123264 -0.447829 -0.885556
vn 0.279835 -0.405174 -0.870360
vn 0.160566 -0.657461 -0.736182
vn -0.123264 -0.447829 -0.885556
vn 0.000000 -0.475326 -0.879788
vn 0.000000 -0.757426 -0.652921
vn -0.088870 0.430616 -0.898129
vn 0.000000 0.424268 -0.905515
vn 0.000000 0.064425 -0.997894
vn 0.088870 0.430616 -0.898129
vn 0.192167 0.322779 -0.926761
vn 0.142277 0.075991 -0.986877
vn 0.263491 0.030044 -0.964194
vn -0.279835 -0.405174 -0.870360
vn -0.160566 -0.657461 -0.736182
vn -0.263491 0.030044 -0.964194
vn -0.142277 0.075991 -0.986877
vn -0.192167 0.322779 -0.926761
vn -0.020309 0.510096 -0.859878
vn 0.049614 0.627331 -0.777170
vn 0.000000 0.621306 -0.783568
vn -0.049614 0.627331 -0.777171
vn 0.020309 0.510096 -0.859878
vn -0.020657 0.742431 0.669603
vn -0.160566 0.657461 0.736182
vn -0.123264 0.447829 0.885556
vn 0.020657 0.742431 0.669604
vn -0.000000 0.757426 0.652921
vn 0.123264 0.447829 0.885556
vn 0.142277 -0.075991 0.986877
vn 0.000000 -0.064425 0.997894
vn 0.088870 -0.430616 0.898129
vn -0.142277 -0.075991 0.986877
vn -0.263491 -0.030044 0.964194
vn -0.192167 -0.322780 0.926761
vn 0.000000 0.475326 0.879788
vn -0.279836 0.405174 0.870360
vn 0.160566 0.657461 0.736182
vn 0.279835 0.405174 0.870360
vn 0.263491 -0.030044 0.964194
vn 0.192167 -0.322779 0.926761
vn 0.020309 -0.510096 0.859878
vn 0.000000 -0.424268 0.905515
vn -0.049614 -0.627331 0.777170
vn -0.088870 -0.430616 0.898129
vn 0.049614 -0.627331 0.777171
vn -0.020309 -0.510096 0.859878
vn 0.020657 -0.742431 -0.669604
vn -0.020657 -0.742431 -0.669604
vn -0.000000 -0.621306 0.783568
g Plane.012_Plane.001_SailCloth
usemtl SailCloth
s 1
f 82//61 73//62 63//63
f 83//64 78//65 66//66
f 84//67 79//68 69//69
f 85//70 77//71 81//72
f 78//65 82//61 66//66
f 69//69 81//72 78//65
f 81//72 68//73 82//61
f 76//74 83//64 64//75
f 67//76 80//77 83//64
f 80//77 69//69 78//65
f 72//78 84//67 80//77
f 62//79 70//80 84//67
f 70//80 65//81 79//68
f 79//68 85//70 69//69
f 65//81 74//82 79//68
f 74//82 61//83 85//70
f 100//84 88//85 107//86
f 96//87 91//88 108//89
f 105//90 94//91 109//92
f 106//93 93//94 102//95
f 91//88 100//84 107//86
f 103//96 107//86 106//93
f 107//86 98//97 93//94
f 89//98 96//87 108//89
f 101//99 108//89 92//100
f 108//89 103//96 105//90
f 92//100 105//90 97//101
f 97//101 109//92 87//102
f 109//92 104//103 95//104
f 94//91 106//93 110//105
f 104//103 110//105 99//106
f 110//105 102//95 86//107
f 75//108 82//61 63//63
f 71//109 83//64 66//66
f 80//77 84//67 69//69
f 77//71 68//73 81//72
f 82//61 75//108 66//66
f 81//72 82//61 78//65
f 68//73 73//62 82//61
f 83//64 71//109 64//75
f 76//74 67//76 83//64
f 83//64 80//77 78//65
f 67//76 72//78 80//77
f 72//78 62//79 84//67
f 84//67 70//80 79//68
f 85//70 81//72 69//69
f 74//82 85//70 79//68
f 61//83 77//71 85//70
f 88//85 98//97 107//86
f 91//88 103//96 108//89
f 94//91 104//103 109//92
f 110//105 106//93 102//95
f 103//96 91//88 107//86
f 94//91 103//96 106//93
f 106//93 107//86 93//94
f 101//99 89//98 108//89
f 108//89 105//90 92//100
f 103//96 94//91 105//90
f 105//90 109//92 97//101
f 109//92 95//104 87//102
f 104//103 90//110 95//104
f 104//103 94//91 110//105
f 90//110 104//103 99//106
f 99//106 110//105 86//107
