<?xml version="1.0" encoding="UTF-8" standalone="no"?>
<!-- Created with Inkscape (http://www.inkscape.org/) -->

<svg
   xmlns:dc="http://purl.org/dc/elements/1.1/"
   xmlns:cc="http://creativecommons.org/ns#"
   xmlns:rdf="http://www.w3.org/1999/02/22-rdf-syntax-ns#"
   xmlns:svg="http://www.w3.org/2000/svg"
   xmlns="http://www.w3.org/2000/svg"
   xmlns:xlink="http://www.w3.org/1999/xlink"
   xmlns:sodipodi="http://sodipodi.sourceforge.net/DTD/sodipodi-0.dtd"
   xmlns:inkscape="http://www.inkscape.org/namespaces/inkscape"
   width="744.09448819"
   height="1052.3622047"
   id="svg2"
   version="1.1"
   inkscape:version="0.48.4 r9939"
   sodipodi:docname="logo.svg">
  <defs
     id="defs4">
    <linearGradient
       inkscape:collect="always"
       id="linearGradient3095">
      <stop
         style="stop-color:#cccccc;stop-opacity:1;"
         offset="0"
         id="stop3097" />
      <stop
         style="stop-color:#666666;stop-opacity:1"
         offset="1"
         id="stop3099" />
    </linearGradient>
    <filter
       id="filter3077"
       inkscape:label="Coin">
      <feGaussianBlur
         stdDeviation="1"
         id="feGaussianBlur3081"
         in="SourceGraphic" />
      <feColorMatrix
         id="feColorMatrix3093"
         values="1 0 0 0 0 0 1 0 0 0 0 0 1 0 0 1 0 0 0 0 " />
      <feSpecularLighting
         id="feSpecularLighting3083"
         result="result3"
         specularExponent="17.402214022140221"
         surfaceScale="0.5">
        <feDistantLight
           id="feDistantLight3091"
           azimuth="242"
           elevation="114" />
      </feSpecularLighting>
      <feFlood
         id="feFlood3085"
         in="SourceGraphic"
         result="result1"
         flood-color="rgb(173,171,171)" />
      <feComposite
         id="feComposite3087"
         in2="SourceAlpha"
         in="result1"
         operator="atop"
         result="result2" />
      <feComposite
         id="feComposite3089"
         in2="result2"
         in="result3"
         operator="atop" />
    </filter>
    <linearGradient
       inkscape:collect="always"
       xlink:href="#linearGradient3095"
       id="linearGradient3101"
       x1="162.86514"
       y1="139.00861"
       x2="273.18039"
       y2="231.40462"
       gradientUnits="userSpaceOnUse" />
    <path
       transform="matrix(0.64705884,0,0,0.64705884,83.218742,63.028317)"
       d="m 140.35379,178.8607 a 77.276672,77.276672 0 0 1 153.59146,-0.59416"
       sodipodi:ry="77.276672"
       sodipodi:rx="77.276672"
       sodipodi:cy="187.16653"
       sodipodi:cx="217.1828"
       id="path3060-0"
       style="color:#000000;fill:#cccccc;fill-opacity:1;fill-rule:nonzero;stroke:#808080;stroke-width:1.54545462;stroke-linecap:butt;stroke-linejoin:miter;stroke-miterlimit:4;stroke-opacity:1;stroke-dasharray:none;stroke-dashoffset:0;marker:none;visibility:visible;display:none;overflow:visible;enable-background:accumulate"
       sodipodi:type="arc"
       sodipodi:start="3.2492825"
       sodipodi:end="6.1677587"
       sodipodi:open="true" />
  </defs>
  <sodipodi:namedview
     id="base"
     pagecolor="#ffffff"
     bordercolor="#666666"
     borderopacity="1.0"
     inkscape:pageopacity="0.0"
     inkscape:pageshadow="2"
     inkscape:zoom="1.4142136"
     inkscape:cx="291.90359"
     inkscape:cy="530.566"
     inkscape:document-units="px"
     inkscape:current-layer="layer1"
     showgrid="false"
     inkscape:window-width="1680"
     inkscape:window-height="1026"
     inkscape:window-x="1366"
     inkscape:window-y="24"
     inkscape:window-maximized="1"
     showguides="true"
     inkscape:guide-bbox="true" />
  <metadata
     id="metadata7">
    <rdf:RDF>
      <cc:Work
         rdf:about="">
        <dc:format>image/svg+xml</dc:format>
        <dc:type
           rdf:resource="http://purl.org/dc/dcmitype/StillImage" />
        <dc:title />
      </cc:Work>
    </rdf:RDF>
  </metadata>
  <g
     inkscape:label="Layer 1"
     inkscape:groupmode="layer"
     id="layer1">
    <g
       id="g3069"
       style="filter:url(#filter3077)">
      <path
         transform="matrix(0.90196079,0,0,0.90196079,27.858422,15.319202)"
         d="m 294.45947,187.16653 a 77.276672,77.276672 0 1 1 -154.55334,0 77.276672,77.276672 0 1 1 154.55334,0 z"
         sodipodi:ry="77.276672"
         sodipodi:rx="77.276672"
         sodipodi:cy="187.16653"
         sodipodi:cx="217.1828"
         id="path3035"
         style="color:#000000;fill:url(#linearGradient3101);fill-opacity:1;fill-rule:nonzero;stroke:none;stroke-width:1.10869562999999993;stroke-linecap:butt;stroke-linejoin:miter;stroke-miterlimit:4;stroke-opacity:1;stroke-dasharray:none;stroke-dashoffset:0;marker:none;visibility:visible;display:inline;overflow:visible;enable-background:accumulate"
         sodipodi:type="arc" />
      <text
         xml:space="preserve"
         style="font-size:130.87867737px;font-style:normal;font-variant:normal;font-weight:bold;font-stretch:normal;line-height:125%;letter-spacing:0px;word-spacing:0px;color:#000000;fill:#333333;fill-opacity:1;fill-rule:nonzero;stroke:none;stroke-width:1;marker:none;visibility:visible;display:inline;overflow:visible;enable-background:accumulate;font-family:FreeSerif;-inkscape-font-specification:FreeSerif Bold"
         x="154.21278"
         y="273.96539"
         id="text3065"
         sodipodi:linespacing="125%"
         transform="scale(1.2041824,0.83043898)"><tspan
           sodipodi:role="line"
           id="tspan3067"
           x="154.21278"
           y="273.96539">8</tspan></text>
      <text
         transform="translate(5.0507627,5.0507627)"
         sodipodi:linespacing="82.999998%"
         id="text2985"
         style="font-size:24px;font-style:italic;font-variant:normal;font-weight:bold;font-stretch:normal;line-height:82.99999833%;letter-spacing:0px;word-spacing:0px;fill:#000000;fill-opacity:1;stroke:none;font-family:URW Chancery L;-inkscape-font-specification:URW Chancery L Bold Italic"
         xml:space="preserve"><textPath
           id="textPath3062"
           xlink:href="#path3060"><tspan
   style="font-size:24px;line-height:82.99999833%"
   id="tspan2987">Pieces of</tspan></textPath></text>
      <path
         sodipodi:type="arc"
         style="color:#000000;fill:none;stroke:#4d4d4d;stroke-width:0.9902091;marker:none;visibility:visible;display:inline;overflow:visible;enable-background:accumulate"
         id="path3103"
         sodipodi:cx="217.1828"
         sodipodi:cy="187.16653"
         sodipodi:rx="77.276672"
         sodipodi:ry="77.276672"
         d="m 294.45947,187.16653 a 77.276672,77.276672 0 1 1 -154.55334,0 77.276672,77.276672 0 1 1 154.55334,0 z"
         transform="matrix(0.85620915,0,0,0.85620915,37.79489,23.882376)" />
      <path
         transform="matrix(0.79084968,0,0,0.79084968,51.989844,36.115482)"
         d="m 294.45947,187.16653 a 77.276672,77.276672 0 1 1 -154.55334,0 77.276672,77.276672 0 1 1 154.55334,0 z"
         sodipodi:ry="77.276672"
         sodipodi:rx="77.276672"
         sodipodi:cy="187.16653"
         sodipodi:cx="217.1828"
         id="path3126"
         style="color:#000000;fill:none;stroke:#4d4d4d;stroke-width:1.07204461;marker:none;visibility:visible;display:inline;overflow:visible;enable-background:accumulate"
         sodipodi:type="arc" />
    </g>
    <path
       transform="matrix(0.64705884,0,0,0.64705884,83.218742,63.028317)"
       d="m 140.35379,178.8607 a 77.276672,77.276672 0 0 1 153.59146,-0.59416"
       sodipodi:ry="77.276672"
       sodipodi:rx="77.276672"
       sodipodi:cy="187.16653"
       sodipodi:cx="217.1828"
       id="path3060"
       style="color:#000000;fill:#cccccc;fill-opacity:1;fill-rule:nonzero;stroke:#808080;stroke-width:1.54545462;stroke-linecap:butt;stroke-linejoin:miter;stroke-miterlimit:4;stroke-opacity:1;stroke-dasharray:none;stroke-dashoffset:0;marker:none;visibility:visible;display:none;overflow:visible;enable-background:accumulate"
       sodipodi:type="arc"
       sodipodi:start="3.2492825"
       sodipodi:end="6.1677587"
       sodipodi:open="true" />
    <text
       xml:space="preserve"
       style="font-size:24px;font-style:italic;font-variant:normal;font-weight:bold;font-stretch:normal;line-height:82.99999832999998262%;letter-spacing:0px;word-spacing:0px;fill:#cccccc;fill-opacity:1;stroke:none;font-family:URW Chancery L;-inkscape-font-specification:URW Chancery L Bold Italic"
       id="text3128"
       sodipodi:linespacing="82.999998%"
       transform="translate(4.9709832,5.0379412)"><textPath
         xlink:href="#path3060-0"
         id="textPath3130"><tspan
   id="tspan3132"
   style="font-size:24px;line-height:82.99999832999998262%;fill:#cccccc">Pieces of</tspan></textPath></text>
    <text
       xml:space="preserve"
       style="font-size:130.87867736999999124px;font-style:normal;font-variant:normal;font-weight:bold;font-stretch:normal;line-height:125%;letter-spacing:0px;word-spacing:0px;color:#000000;fill:#cccccc;fill-opacity:1;fill-rule:nonzero;stroke:none;stroke-width:1;marker:none;visibility:visible;display:inline;overflow:visible;enable-background:accumulate;font-family:FreeSerif;-inkscape-font-specification:FreeSerif Bold"
       x="154.07991"
       y="274.28589"
       id="text3065-3"
       sodipodi:linespacing="125%"
       transform="scale(1.2041824,0.83043898)"><tspan
         sodipodi:role="line"
         id="tspan3067-2"
         x="154.07991"
         y="274.28589">8</tspan></text>
    <text
       xml:space="preserve"
       style="font-size:37.11670303px;font-style:normal;font-variant:normal;font-weight:bold;font-stretch:normal;text-indent:0;text-align:start;text-decoration:none;line-height:125%;letter-spacing:-1.96000016px;word-spacing:0px;text-transform:none;direction:ltr;block-progression:tb;writing-mode:lr-tb;text-anchor:start;baseline-shift:baseline;color:#000000;fill:#ffcc00;fill-opacity:1;fill-rule:nonzero;stroke:#aa8800;stroke-width:1;stroke-linecap:butt;stroke-linejoin:miter;stroke-miterlimit:4;stroke-opacity:1;stroke-dasharray:none;stroke-dashoffset:0;marker:none;visibility:visible;display:inline;overflow:visible;enable-background:accumulate;font-family:Albert Text;-inkscape-font-specification:Albert Text Bold"
       id="text3186"
       sodipodi:linespacing="125%"
       transform="translate(194,-7)"><textPath
         xlink:href="#path3185"
         id="textPath3187"><tspan
   style="letter-spacing:-1.96000016px;stroke-width:1"
   id="tspan3188"
   dx="10">Pieces of</tspan></textPath></text>
    <g
       id="g3165"
       transform="matrix(0.60827488,0,0,0.60827488,86.10703,166.81759)">
      <g
         id="g3113">
        <path
           style="color:#000000;fill:#cccccc;fill-opacity:1;fill-rule:nonzero;stroke:#999999;stroke-width:1.64399362;stroke-linecap:butt;stroke-linejoin:miter;stroke-miterlimit:4;stroke-opacity:1;stroke-dasharray:none;stroke-dashoffset:0;marker:none;visibility:visible;display:inline;overflow:visible;enable-background:accumulate"
           d="m 92.4927,378.81027 c -3.779463,-1.51849 -8.074301,0.31439 -9.592789,4.09386 -0.770738,1.91834 -0.670822,3.94524 0.101549,5.69868 -1.762362,0.73395 -3.248095,2.13295 -4.016044,4.04435 -1.518488,3.77946 0.314393,8.0743 4.093856,9.59279 3.501637,1.40687 7.440032,-0.0758 9.208586,-3.30524 l 87.107372,34.99745 c -0.9574,3.55536 0.86043,7.3507 4.36207,8.75757 3.77946,1.51849 8.0743,-0.31439 9.59279,-4.09386 0.76795,-1.91139 0.66313,-3.94944 -0.10155,-5.69868 1.77082,-0.73166 3.24531,-2.12601 4.01604,-4.04435 1.51849,-3.77946 -0.31439,-8.0743 -4.09385,-9.59279 -3.77946,-1.51849 -8.0743,0.31439 -9.59279,4.09386 -0.0474,0.1179 -0.0989,0.22915 -0.1398,0.34796 L 96.446752,388.75103 c 0.05268,-0.11408 0.09243,-0.23007 0.139803,-0.34797 1.518489,-3.77946 -0.314393,-8.0743 -4.093855,-9.59279 z"
           id="rect3079"
           inkscape:connector-curvature="0" />
        <path
           inkscape:connector-curvature="0"
           id="path3111"
           d="m 92.4927,442.68973 c -3.779463,1.51849 -8.074301,-0.31439 -9.592789,-4.09386 -0.770738,-1.91834 -0.670822,-3.94524 0.101549,-5.69868 -1.762362,-0.73395 -3.248095,-2.13295 -4.016044,-4.04435 -1.518488,-3.77946 0.314393,-8.0743 4.093856,-9.59279 3.501637,-1.40687 7.440032,0.0758 9.208586,3.30524 l 87.107372,-34.99745 c -0.9574,-3.55536 0.86043,-7.3507 4.36207,-8.75757 3.77946,-1.51849 8.0743,0.31439 9.59279,4.09386 0.76795,1.91139 0.66313,3.94944 -0.10155,5.69868 1.77082,0.73166 3.24531,2.12601 4.01604,4.04435 1.51849,3.77946 -0.31439,8.0743 -4.09385,9.59279 -3.77946,1.51849 -8.0743,-0.31439 -9.59279,-4.09386 -0.0474,-0.1179 -0.0989,-0.22915 -0.1398,-0.34796 l -86.991388,34.95084 c 0.05268,0.11408 0.09243,0.23007 0.139803,0.34797 1.518489,3.77946 -0.314393,8.0743 -4.093855,9.59279 z"
           style="color:#000000;fill:#cccccc;fill-opacity:1;fill-rule:nonzero;stroke:#999999;stroke-width:1.64399362;stroke-linecap:butt;stroke-linejoin:miter;stroke-miterlimit:4;stroke-opacity:1;stroke-dasharray:none;stroke-dashoffset:0;marker:none;visibility:visible;display:inline;overflow:visible;enable-background:accumulate" />
      </g>
      <g
         transform="translate(0,4.5)"
         id="g3117">
        <path
           style="color:#000000;fill:#cccccc;fill-opacity:1;fill-rule:nonzero;stroke:#999999;stroke-width:1.64399362;stroke-linecap:butt;stroke-linejoin:miter;stroke-miterlimit:4;stroke-opacity:1;stroke-dasharray:none;stroke-dashoffset:0;marker:none;visibility:visible;display:inline;overflow:visible;enable-background:accumulate"
           d="m 136.75,350.375 c -13.94519,0 -22.75,12.97638 -22.75,27.75 0,8.00522 2.33379,14.16025 7.59375,19.0625 -0.0621,0.36022 -0.0937,0.71525 -0.0937,1.09375 l 0,9.65625 c 0,3.56386 2.87364,6.4375 6.4375,6.4375 l 18.625,0 c 3.56386,0 6.4375,-2.87364 6.4375,-6.4375 l 0,-9.125 c 6.35272,-4.85814 8,-13.25299 8,-22.1875 0,-14.77362 -10.30481,-26.25 -24.25,-26.25 z"
           id="path3024"
           inkscape:connector-curvature="0"
           sodipodi:nodetypes="sscssssscss" />
        <path
           sodipodi:type="arc"
           style="color:#000000;fill:#666666;fill-opacity:1;fill-rule:nonzero;stroke:none;stroke-width:1.64399362;marker:none;visibility:visible;display:inline;overflow:visible;enable-background:accumulate"
           id="path3029"
           sodipodi:cx="134.25"
           sodipodi:cy="365.61218"
           sodipodi:rx="6.25"
           sodipodi:ry="6.25"
           d="m 140.5,365.61218 c 0,3.45178 -2.79822,6.25 -6.25,6.25 -3.45178,0 -6.25,-2.79822 -6.25,-6.25 0,-3.45178 2.79822,-6.25 6.25,-6.25 3.45178,0 6.25,2.79822 6.25,6.25 z"
           transform="translate(-5.5606602,13)" />
        <path
           transform="translate(12,13)"
           d="m 140.5,365.61218 c 0,3.45178 -2.79822,6.25 -6.25,6.25 -3.45178,0 -6.25,-2.79822 -6.25,-6.25 0,-3.45178 2.79822,-6.25 6.25,-6.25 3.45178,0 6.25,2.79822 6.25,6.25 z"
           sodipodi:ry="6.25"
           sodipodi:rx="6.25"
           sodipodi:cy="365.61218"
           sodipodi:cx="134.25"
           id="path3031"
           style="color:#000000;fill:#666666;fill-opacity:1;fill-rule:nonzero;stroke:none;stroke-width:1.64399362;marker:none;visibility:visible;display:inline;overflow:visible;enable-background:accumulate"
           sodipodi:type="arc" />
        <path
           sodipodi:type="star"
           style="color:#000000;fill:#666666;fill-opacity:1;fill-rule:nonzero;stroke:none;stroke-width:15.26159859;marker:none;visibility:visible;display:inline;overflow:visible;enable-background:accumulate"
           id="path3033"
           sodipodi:sides="3"
           sodipodi:cx="25"
           sodipodi:cy="438.86218"
           sodipodi:r1="28.76894"
           sodipodi:r2="10.325938"
           sodipodi:arg1="-1.5707963"
           sodipodi:arg2="-0.52359875"
           inkscape:flatsided="true"
           inkscape:rounded="0.19634399"
           inkscape:randomized="0"
           d="m 25.000001,410.09324 c 9.783677,0 29.80647,34.6805 24.914631,43.15341 -4.891838,8.47292 -44.937427,8.47291 -49.82926524,0 C -4.8064714,444.77374 15.216324,410.09324 25.000001,410.09324 z"
           inkscape:transform-center-x="0.40843721"
           inkscape:transform-center-y="0.09388317"
           transform="matrix(0.07023292,0,-0.02155318,0.16521879,142.8054,317.95425)" />
        <path
           transform="matrix(-0.07023292,0,0.02155318,0.16521879,131.16042,317.95425)"
           inkscape:transform-center-y="0.09388317"
           inkscape:transform-center-x="-0.40843809"
           d="m 25.000001,410.09324 c 9.783677,0 29.80647,34.6805 24.914631,43.15341 -4.891838,8.47292 -44.937427,8.47291 -49.82926524,0 C -4.8064714,444.77374 15.216324,410.09324 25.000001,410.09324 z"
           inkscape:randomized="0"
           inkscape:rounded="0.19634399"
           inkscape:flatsided="true"
           sodipodi:arg2="-0.52359875"
           sodipodi:arg1="-1.5707963"
           sodipodi:r2="10.325938"
           sodipodi:r1="28.76894"
           sodipodi:cy="438.86218"
           sodipodi:cx="25"
           sodipodi:sides="3"
           id="path3036"
           style="color:#000000;fill:#666666;fill-opacity:1;fill-rule:nonzero;stroke:none;stroke-width:15.26159859;marker:none;visibility:visible;display:inline;overflow:visible;enable-background:accumulate"
           sodipodi:type="star" />
        <rect
           style="color:#000000;fill:#f2f2f2;fill-opacity:1;fill-rule:evenodd;stroke:#999999;stroke-width:1.64399362px;stroke-opacity:1;marker:none;visibility:visible;display:inline;overflow:visible;enable-background:accumulate"
           id="rect3038"
           width="31.466251"
           height="9.5459414"
           x="121.44559"
           y="399.12112" />
        <path
           style="fill:none;stroke:#b3b3b3;stroke-width:1.64399362px;stroke-linecap:butt;stroke-linejoin:miter;stroke-opacity:1"
           d="m 126.57211,399.4747 0,8.48528"
           id="path3067"
           inkscape:connector-curvature="0" />
        <path
           style="fill:none;stroke:#b3b3b3;stroke-width:1.64399362px;stroke-linecap:butt;stroke-linejoin:miter;stroke-opacity:1"
           d="m 131.1683,399.4747 0,8.48528"
           id="path3071"
           inkscape:connector-curvature="0" />
        <path
           style="fill:none;stroke:#b3b3b3;stroke-width:1.64399362px;stroke-linecap:butt;stroke-linejoin:miter;stroke-opacity:1"
           d="m 137.53227,399.4747 0,8.48528"
           id="path3073"
           inkscape:connector-curvature="0" />
        <path
           style="fill:none;stroke:#b3b3b3;stroke-width:1.64399362px;stroke-linecap:butt;stroke-linejoin:miter;stroke-opacity:1"
           d="m 143.18911,399.29792 0,8.48528"
           id="path3075"
           inkscape:connector-curvature="0" />
        <path
           inkscape:connector-curvature="0"
           id="path3069"
           d="m 148.31564,399.4747 0,8.48528"
           style="fill:none;stroke:#b3b3b3;stroke-width:1.64399362px;stroke-linecap:butt;stroke-linejoin:miter;stroke-opacity:1" />
        <path
           inkscape:connector-curvature="0"
           id="path3077"
           d="m 150.87575,403.54056 -27.74764,0"
           style="fill:none;stroke:#b3b3b3;stroke-width:1.64399362px;stroke-linecap:butt;stroke-linejoin:miter;stroke-opacity:1" />
      </g>
    </g>
    <g
       id="g3160"
       transform="translate(30,22)">
      <text
         sodipodi:linespacing="125%"
         id="text3020"
         y="484.16885"
         x="61.543945"
         style="font-size:79.59171295px;font-style:normal;font-variant:normal;font-weight:bold;font-stretch:normal;line-height:125%;letter-spacing:0px;word-spacing:0px;fill:#ffcc00;fill-opacity:1;stroke:#aa8800;stroke-width:1.5;font-family:Albert Text;-inkscape-font-specification:Albert Text Bold"
         xml:space="preserve"><tspan
           y="484.16885"
           x="61.543945"
           id="tspan3022"
           sodipodi:role="line">Eight</tspan></text>
      <path
         id="path3150"
         d="m 202.90625,419.84375 -1.75,0.25 c -3.07756,7.85311 -7.15614,12.5049 -12.25,13.9375 l -0.5,5.8125 c 2.75918,0.42453 4.34732,0.8568 4.71875,1.28125 l -0.53125,20.4375 c 4.19617,-1.53597 8.23099,-3.43024 11.9375,-6 0.0141,-0.69875 0.0171,-1.22127 0.0312,-1.96875 0.15917,-5.57138 0.24998,-9.70953 0.25,-12.46875 0.68978,-0.84893 1.55432,-1.28121 2.5625,-1.28125 0.26529,4e-5 0.65687,0.009 1.1875,0.0625 0.53059,0.0531 0.92217,0.0938 1.1875,0.0937 0.36342,10e-6 0.6823,-0.0823 0.9375,-0.21875 0.20934,-1.29668 0.45709,-2.59249 0.75,-3.875 -0.27807,-1.66912 -0.98181,-2.53121 -2.15625,-2.53125 -0.21227,5e-5 -0.55372,0.0814 -1.03125,0.1875 -0.47757,0.0531 -0.85028,0.0625 -1.0625,0.0625 l -2.125,0 -0.5,-13.59375 c -0.53063,-0.053 -0.92221,-0.0937 -1.1875,-0.0937 -0.26532,-0.053 -0.4157,-0.0937 -0.46875,-0.0937 z m -38.5625,1.125 -12.15625,5.09375 c 1.80408,2.06944 2.82844,3.46651 3.09375,4.15625 l -0.84375,43.3125 c 1.12953,-0.86385 2.35111,-1.63571 3.71875,-2.3125 2.59364,-0.97587 5.28544,-1.78541 8,-2.53125 l 0.34375,-23.90625 1.125,-0.96875 c 3.76732,-0.10608 5.62498,5.90209 5.625,18 l 0,3.5625 c 0,0.47517 -0.003,0.99045 -0.0312,1.5 4.07224,-0.97356 8.16833,-1.91621 12.1875,-3.03125 0.007,-0.28325 0.0312,-0.56037 0.0312,-0.84375 -3e-5,-6.52649 -1.07453,-13.50891 -3.25,-20.9375 -1.80411,-6.26117 -3.64289,-9.37495 -5.5,-9.375 -0.37145,5e-5 -3.56661,1.70733 -9.5625,5.15625 l -0.375,-16.40625 -2.40625,-0.46875 z m -31.625,11.375 c -9.86938,9.39186 -14.8125,19.86076 -14.8125,31.375 0,4.56327 0.78316,8.83293 2.375,12.8125 2.01632,5.04081 4.28737,7.5625 6.78125,7.5625 1.2204,0 2.76785,-0.68291 4.625,-2.0625 2.38773,-1.80407 3.85381,-2.85969 4.4375,-3.125 1.59181,2.65306 2.40623,4.40102 2.40625,5.25 -2e-5,2.8653 -1.54747,4.3125 -4.625,4.3125 -1.91022,0 -5.49696,-1.206 -10.75,-3.59375 -2.54694,3.55509 -4.14452,7.1324 -4.78125,10.6875 1.16734,0.63672 5.37743,0.93749 12.59375,0.9375 4.10498,0 7.508,-0.40564 10.25,-1.21875 2.33758,-5.39511 4.40377,-11.00357 7.625,-15.71875 -0.7902,-2.76966 -1.15627,-6.72857 -1.15625,-11.9375 -3e-5,-0.31835 -3e-5,-1.33328 0,-3.03125 0.053,-1.69794 0.10316,-4.11937 0.15625,-7.25 0.053,-5.25302 0.1126,-8.25711 0.21875,-9 0.10609,-1.37955 0.34729,-2.78606 0.71875,-4.21875 0.42446,-1.43261 0.94755,-2.89868 1.53125,-4.4375 -3.449,-1.53873 -6.64416,-2.9358 -9.5625,-4.15625 -2.91838,-1.22036 -5.59046,-2.28541 -8.03125,-3.1875 z M 115.125,438.9375 c -4.08055,1.83921 -7.93669,4.08155 -11.15625,7.5 0.0562,1.112 0.0937,2.30084 0.0937,3.65625 l 0,2.25 c 0,0.84901 -0.0407,1.87337 -0.0937,3.09375 -0.0531,1.16737 -0.0937,2.19174 -0.0937,3.09375 l 0,2.15625 0,15.90625 c 0,3.44898 0.0908,5.82028 0.25,7.09375 0.84897,0.0531 1.67283,0.10319 2.46875,0.15625 l 2.625,0 c 1.59182,0 3.23953,-0.30077 4.9375,-0.9375 l 0.9687,-43.96875 z m 16,4.625 c 2.91835,0.95514 4.62562,1.96063 5.15625,2.96875 L 135.5,472.875 c -0.58369,0.31838 -1.01596,0.46876 -1.28125,0.46875 -0.42451,10e-6 -0.85678,-0.14093 -1.28125,-0.40625 -2.28164,-1.64488 -3.40626,-4.74923 -3.40625,-9.3125 -1e-5,-0.26528 0.0596,-3.02817 0.21875,-8.28125 0.0531,-1.96323 0.13443,-3.96183 0.1875,-6.03125 0.0531,-2.06935 0.44463,-3.99894 1.1875,-5.75 z m -38.34375,11 c -0.729556,0.44502 -1.45861,0.89778 -2.1875,1.34375 0.910599,0.19875 1.681325,0.33503 2.15625,0.40625 l 0.03125,-1.75 z m 6.15625,9.0625 -1.25,0.25 c -1.379624,2.44083 -2.736005,4.1481 -4.0625,5.15625 -1.697987,1.27348 -3.737277,1.93751 -6.125,1.9375 -2.865325,10e-6 -5.527958,-1.11517 -7.96875,-3.34375 -0.637808,-0.56693 -1.191666,-1.21312 -1.6875,-1.90625 -2.907124,3.39475 -4.914121,7.51459 -5.28125,12.90625 0.08582,0.36536 0.143739,0.72462 0.21875,1.09375 4.050143,2.75251 9.260195,4.125 15.65625,4.125 l 2.875,0 c 1.857108,-0.0531 4.569869,-0.10319 8.125,-0.15625 0.05302,-0.2653 0.06246,-0.5065 0.0625,-0.71875 -3.8e-5,-0.21224 0.04065,-0.40331 0.09375,-0.5625 l 0,-9.15625 c -3.8e-5,-1.22039 0.0094,-2.58621 0.0625,-4.125 0.106084,-1.59182 0.287717,-3.33978 0.5,-5.25 l -1.21875,-0.25 z"
         style="opacity:0.5;color:#000000;fill:#ffffff;stroke:none;stroke-width:4;marker:none;visibility:visible;display:inline;overflow:visible;enable-background:accumulate"
         inkscape:connector-curvature="0" />
    </g>
    <path
       style="fill:none;stroke:#000000;stroke-width:1px;stroke-linecap:butt;stroke-linejoin:miter;stroke-opacity:1;display:none"
       d="m -87,401.36218 c 38,-26 86,-27 125,-2"
       id="path3185"
       inkscape:connector-curvature="0"
       sodipodi:nodetypes="cc" />
    <text
       transform="translate(454.82842,-4.8786797)"
       sodipodi:linespacing="125%"
       id="text3207"
       style="font-size:48px;font-style:normal;font-variant:normal;font-weight:bold;font-stretch:normal;text-indent:0;text-align:start;text-decoration:none;line-height:125%;letter-spacing:-0.08px;word-spacing:0px;text-transform:none;direction:ltr;block-progression:tb;writing-mode:lr-tb;text-anchor:start;baseline-shift:baseline;color:#000000;fill:#ffcc00;fill-opacity:1;fill-rule:nonzero;stroke:#aa8800;stroke-width:1;stroke-linecap:butt;stroke-linejoin:miter;stroke-miterlimit:4;stroke-opacity:1;stroke-dasharray:none;stroke-dashoffset:0;marker:none;visibility:visible;display:inline;overflow:visible;enable-background:accumulate;font-family:Benegraphic;-inkscape-font-specification:Benegraphic Bold"
       xml:space="preserve"><textPath
         id="textPath3209"
         xlink:href="#path3185"><tspan
   dx="12.828426 -3.5355339 1.4142135"
   id="tspan3211"
   style="font-size:48px;font-style:normal;font-variant:normal;font-weight:bold;font-stretch:normal;letter-spacing:-0.08px;stroke-width:1;font-family:Benegraphic;-inkscape-font-specification:Benegraphic Bold">Pieces of</tspan></textPath></text>
    <g
       transform="matrix(0.60827488,0,0,0.60827488,344.10703,166.81759)"
       id="g3213">
      <g
         id="g3215">
        <path
           inkscape:connector-curvature="0"
           id="path3217"
           d="m 92.4927,378.81027 c -3.779463,-1.51849 -8.074301,0.31439 -9.592789,4.09386 -0.770738,1.91834 -0.670822,3.94524 0.101549,5.69868 -1.762362,0.73395 -3.248095,2.13295 -4.016044,4.04435 -1.518488,3.77946 0.314393,8.0743 4.093856,9.59279 3.501637,1.40687 7.440032,-0.0758 9.208586,-3.30524 l 87.107372,34.99745 c -0.9574,3.55536 0.86043,7.3507 4.36207,8.75757 3.77946,1.51849 8.0743,-0.31439 9.59279,-4.09386 0.76795,-1.91139 0.66313,-3.94944 -0.10155,-5.69868 1.77082,-0.73166 3.24531,-2.12601 4.01604,-4.04435 1.51849,-3.77946 -0.31439,-8.0743 -4.09385,-9.59279 -3.77946,-1.51849 -8.0743,0.31439 -9.59279,4.09386 -0.0474,0.1179 -0.0989,0.22915 -0.1398,0.34796 L 96.446752,388.75103 c 0.05268,-0.11408 0.09243,-0.23007 0.139803,-0.34797 1.518489,-3.77946 -0.314393,-8.0743 -4.093855,-9.59279 z"
           style="color:#000000;fill:#cccccc;fill-opacity:1;fill-rule:nonzero;stroke:#999999;stroke-width:1.64399362;stroke-linecap:butt;stroke-linejoin:miter;stroke-miterlimit:4;stroke-opacity:1;stroke-dasharray:none;stroke-dashoffset:0;marker:none;visibility:visible;display:inline;overflow:visible;enable-background:accumulate" />
        <path
           style="color:#000000;fill:#cccccc;fill-opacity:1;fill-rule:nonzero;stroke:#999999;stroke-width:1.64399362;stroke-linecap:butt;stroke-linejoin:miter;stroke-miterlimit:4;stroke-opacity:1;stroke-dasharray:none;stroke-dashoffset:0;marker:none;visibility:visible;display:inline;overflow:visible;enable-background:accumulate"
           d="m 92.4927,442.68973 c -3.779463,1.51849 -8.074301,-0.31439 -9.592789,-4.09386 -0.770738,-1.91834 -0.670822,-3.94524 0.101549,-5.69868 -1.762362,-0.73395 -3.248095,-2.13295 -4.016044,-4.04435 -1.518488,-3.77946 0.314393,-8.0743 4.093856,-9.59279 3.501637,-1.40687 7.440032,0.0758 9.208586,3.30524 l 87.107372,-34.99745 c -0.9574,-3.55536 0.86043,-7.3507 4.36207,-8.75757 3.77946,-1.51849 8.0743,0.31439 9.59279,4.09386 0.76795,1.91139 0.66313,3.94944 -0.10155,5.69868 1.77082,0.73166 3.24531,2.12601 4.01604,4.04435 1.51849,3.77946 -0.31439,8.0743 -4.09385,9.59279 -3.77946,1.51849 -8.0743,-0.31439 -9.59279,-4.09386 -0.0474,-0.1179 -0.0989,-0.22915 -0.1398,-0.34796 l -86.991388,34.95084 c 0.05268,0.11408 0.09243,0.23007 0.139803,0.34797 1.518489,3.77946 -0.314393,8.0743 -4.093855,9.59279 z"
           id="path3219"
           inkscape:connector-curvature="0" />
      </g>
      <g
         id="g3221"
         transform="translate(0,4.5)">
        <path
           sodipodi:nodetypes="sscssssscss"
           inkscape:connector-curvature="0"
           id="path3223"
           d="m 136.75,350.375 c -13.94519,0 -22.75,12.97638 -22.75,27.75 0,8.00522 2.33379,14.16025 7.59375,19.0625 -0.0621,0.36022 -0.0937,0.71525 -0.0937,1.09375 l 0,9.65625 c 0,3.56386 2.87364,6.4375 6.4375,6.4375 l 18.625,0 c 3.56386,0 6.4375,-2.87364 6.4375,-6.4375 l 0,-9.125 c 6.35272,-4.85814 8,-13.25299 8,-22.1875 0,-14.77362 -10.30481,-26.25 -24.25,-26.25 z"
           style="color:#000000;fill:#cccccc;fill-opacity:1;fill-rule:nonzero;stroke:#999999;stroke-width:1.64399362;stroke-linecap:butt;stroke-linejoin:miter;stroke-miterlimit:4;stroke-opacity:1;stroke-dasharray:none;stroke-dashoffset:0;marker:none;visibility:visible;display:inline;overflow:visible;enable-background:accumulate" />
        <path
           transform="translate(-5.5606602,13)"
           d="m 140.5,365.61218 c 0,3.45178 -2.79822,6.25 -6.25,6.25 -3.45178,0 -6.25,-2.79822 -6.25,-6.25 0,-3.45178 2.79822,-6.25 6.25,-6.25 3.45178,0 6.25,2.79822 6.25,6.25 z"
           sodipodi:ry="6.25"
           sodipodi:rx="6.25"
           sodipodi:cy="365.61218"
           sodipodi:cx="134.25"
           id="path3225"
           style="color:#000000;fill:#666666;fill-opacity:1;fill-rule:nonzero;stroke:none;stroke-width:1.64399362;marker:none;visibility:visible;display:inline;overflow:visible;enable-background:accumulate"
           sodipodi:type="arc" />
        <path
           sodipodi:type="arc"
           style="color:#000000;fill:#666666;fill-opacity:1;fill-rule:nonzero;stroke:none;stroke-width:1.64399362;marker:none;visibility:visible;display:inline;overflow:visible;enable-background:accumulate"
           id="path3227"
           sodipodi:cx="134.25"
           sodipodi:cy="365.61218"
           sodipodi:rx="6.25"
           sodipodi:ry="6.25"
           d="m 140.5,365.61218 c 0,3.45178 -2.79822,6.25 -6.25,6.25 -3.45178,0 -6.25,-2.79822 -6.25,-6.25 0,-3.45178 2.79822,-6.25 6.25,-6.25 3.45178,0 6.25,2.79822 6.25,6.25 z"
           transform="translate(12,13)" />
        <path
           transform="matrix(0.07023292,0,-0.02155318,0.16521879,142.8054,317.95425)"
           inkscape:transform-center-y="0.09388317"
           inkscape:transform-center-x="0.40843721"
           d="m 25.000001,410.09324 c 9.783677,0 29.80647,34.6805 24.914631,43.15341 -4.891838,8.47292 -44.937427,8.47291 -49.82926524,0 C -4.8064714,444.77374 15.216324,410.09324 25.000001,410.09324 z"
           inkscape:randomized="0"
           inkscape:rounded="0.19634399"
           inkscape:flatsided="true"
           sodipodi:arg2="-0.52359875"
           sodipodi:arg1="-1.5707963"
           sodipodi:r2="10.325938"
           sodipodi:r1="28.76894"
           sodipodi:cy="438.86218"
           sodipodi:cx="25"
           sodipodi:sides="3"
           id="path3229"
           style="color:#000000;fill:#666666;fill-opacity:1;fill-rule:nonzero;stroke:none;stroke-width:15.26159859;marker:none;visibility:visible;display:inline;overflow:visible;enable-background:accumulate"
           sodipodi:type="star" />
        <path
           sodipodi:type="star"
           style="color:#000000;fill:#666666;fill-opacity:1;fill-rule:nonzero;stroke:none;stroke-width:15.26159859;marker:none;visibility:visible;display:inline;overflow:visible;enable-background:accumulate"
           id="path3231"
           sodipodi:sides="3"
           sodipodi:cx="25"
           sodipodi:cy="438.86218"
           sodipodi:r1="28.76894"
           sodipodi:r2="10.325938"
           sodipodi:arg1="-1.5707963"
           sodipodi:arg2="-0.52359875"
           inkscape:flatsided="true"
           inkscape:rounded="0.19634399"
           inkscape:randomized="0"
           d="m 25.000001,410.09324 c 9.783677,0 29.80647,34.6805 24.914631,43.15341 -4.891838,8.47292 -44.937427,8.47291 -49.82926524,0 C -4.8064714,444.77374 15.216324,410.09324 25.000001,410.09324 z"
           inkscape:transform-center-x="-0.40843809"
           inkscape:transform-center-y="0.09388317"
           transform="matrix(-0.07023292,0,0.02155318,0.16521879,131.16042,317.95425)" />
        <rect
           y="399.12112"
           x="121.44559"
           height="9.5459414"
           width="31.466251"
           id="rect3233"
           style="color:#000000;fill:#f2f2f2;fill-opacity:1;fill-rule:evenodd;stroke:#999999;stroke-width:1.64399362px;stroke-opacity:1;marker:none;visibility:visible;display:inline;overflow:visible;enable-background:accumulate" />
        <path
           inkscape:connector-curvature="0"
           id="path3235"
           d="m 126.57211,399.4747 0,8.48528"
           style="fill:none;stroke:#b3b3b3;stroke-width:1.64399362px;stroke-linecap:butt;stroke-linejoin:miter;stroke-opacity:1" />
        <path
           inkscape:connector-curvature="0"
           id="path3237"
           d="m 131.1683,399.4747 0,8.48528"
           style="fill:none;stroke:#b3b3b3;stroke-width:1.64399362px;stroke-linecap:butt;stroke-linejoin:miter;stroke-opacity:1" />
        <path
           inkscape:connector-curvature="0"
           id="path3239"
           d="m 137.53227,399.4747 0,8.48528"
           style="fill:none;stroke:#b3b3b3;stroke-width:1.64399362px;stroke-linecap:butt;stroke-linejoin:miter;stroke-opacity:1" />
        <path
           inkscape:connector-curvature="0"
           id="path3241"
           d="m 143.18911,399.29792 0,8.48528"
           style="fill:none;stroke:#b3b3b3;stroke-width:1.64399362px;stroke-linecap:butt;stroke-linejoin:miter;stroke-opacity:1" />
        <path
           style="fill:none;stroke:#b3b3b3;stroke-width:1.64399362px;stroke-linecap:butt;stroke-linejoin:miter;stroke-opacity:1"
           d="m 148.31564,399.4747 0,8.48528"
           id="path3243"
           inkscape:connector-curvature="0" />
        <path
           style="fill:none;stroke:#b3b3b3;stroke-width:1.64399362px;stroke-linecap:butt;stroke-linejoin:miter;stroke-opacity:1"
           d="m 150.87575,403.54056 -27.74764,0"
           id="path3245"
           inkscape:connector-curvature="0" />
      </g>
    </g>
    <g
       transform="matrix(1,0,0,0.80224688,291.53553,85.184279)"
       id="g3247">
      <text
         xml:space="preserve"
         style="font-size:107.07250977px;font-style:normal;font-variant:normal;font-weight:bold;font-stretch:normal;line-height:125%;letter-spacing:0px;word-spacing:0px;fill:#ffcc00;fill-opacity:1;stroke:#aa8800;stroke-width:1.67470086;font-family:Albert Text;-inkscape-font-specification:Albert Text Bold"
         x="61.061321"
         y="477.78424"
         id="text3249"
         sodipodi:linespacing="125%"
         transform="scale(0.99894003,1.0010611)"><tspan
           sodipodi:role="line"
           id="tspan3251"
           x="61.061321"
           y="477.78424"
           style="font-style:normal;font-variant:normal;font-weight:bold;font-stretch:normal;stroke-width:1.24487889;font-family:Benegraphic;-inkscape-font-specification:Benegraphic Bold">Eight</tspan></text>
      <path
         inkscape:connector-curvature="0"
         style="opacity:0.5;fill:#ffffff;stroke:none"
         d="m 121.27269,413.22853 c -1.04346,0.49798 -2.10942,1.21415 -3.1875,2.09375 -0.84916,2.06301 -1.56587,4.09806 -2.15625,6.09375 l 1.8125,1.875 c 0.71305,5e-5 1.81507,-0.34787 3.3125,-1.0625 1.56872,-0.78597 2.72443,-1.53537 3.4375,-2.25 -1e-5,-0.50014 -0.55542,-1.59746 -1.625,-3.3125 -1.0696,-1.78637 -1.59376,-2.93723 -1.59375,-3.4375 z m 41.90625,2.46875 c -3.85053,1.71504 -6.60996,3.98551 -8.25,6.84375 0.71306,6e-5 1.36705,0.47736 1.9375,1.40625 0.57044,0.929 0.84375,1.83006 0.84375,2.6875 0,9.50388 -0.0986,19.29954 -0.3125,29.375 -0.21392,10.07551 -0.3125,15.51752 -0.3125,16.375 0,2.14373 0.0449,3.52209 0.1875,4.09375 l 2,1.40625 c -0.1502,-8.77269 -0.26381,-17.66697 1.75,-25.21875 0.91191,-3.41966 2.0699,-6.09852 3.40625,-8.21875 -0.20941,-3.4396 -0.36196,-7.63185 -0.40625,-12.78125 -0.0713,-7.71735 -0.34462,-13.03894 -0.84375,-15.96875 z m 29.8125,10.1875 c -2.42996,1.21759 -3.98271,2.75915 -4.6875,4.625 1.55209,-1.06651 3.06972,-2.38703 4.53125,-4.03125 0.0726,-0.0817 0.14635,-0.16689 0.21875,-0.25 -0.0227,-0.10751 -0.0374,-0.24797 -0.0625,-0.34375 z m -47.625,15.84375 c -0.0713,0.0715 -2.95178,2.54718 -8.65625,7.40625 -3.56531,3.00124 -5.34375,5.15129 -5.34375,6.4375 0,2.50103 0.42557,6.2257 1.28125,11.15625 0.99828,5.85951 2.17643,10.05253 3.53125,12.625 l 6.84375,-1.28125 c 1.49741,0 2.24998,0.15167 2.25,0.4375 -2e-5,0.21437 -0.17474,0.41063 -0.53125,0.625 l 0,9.65625 c -1.56875,-0.57167 -5.85577,-2.16858 -12.84375,-4.8125 -4.49228,-1.78644 -7.35029,-2.6875 -8.5625,-2.6875 -4.42096,0 -9.2097,3.8228 -14.34375,11.46875 1.49744,-1.21479 3.98358,-2.23627 7.40625,-3.09375 2.85225,-0.71458 5.15486,-1.09376 6.9375,-1.09375 1.21221,-10e-6 4.34352,1.22669 9.40625,3.65625 5.13402,2.42954 8.31904,3.65623 9.53125,3.65625 1.3548,-2e-5 3.23183,-1.65047 5.65625,-4.9375 2.56699,-3.57288 3.87498,-6.79796 3.875,-9.65625 -2e-5,-0.35729 -0.32702,-3.95259 -0.96875,-10.8125 -0.64178,-6.8599 -0.96877,-12.25732 -0.96875,-16.1875 -2e-5,-2.57244 0.15225,-4.7002 0.4375,-6.34375 -2.49573,-1.21474 -4.15315,-3.28896 -4.9375,-6.21875 z m -23.78125,1.09375 c -0.78437,0.71461 -2.3881,1.83422 -4.8125,3.40625 -2.3531,1.50064 -4.05541,2.74963 -5.125,3.75 3.99313,1.35772 5.99999,4.31071 6,8.8125 -1e-5,1.21479 -0.17473,3.11505 -0.53125,5.6875 -0.28523,2.50102 -0.4375,4.29419 -0.4375,5.4375 0,4.78765 2.53102,7.58897 7.59375,8.375 3.06614,-3.14412 4.59373,-5.96773 4.59375,-8.46875 -0.28524,1e-5 -0.55854,0.22751 -0.84375,0.65625 -0.28524,0.35729 -1.13639,0.53126 -2.5625,0.53125 -2.06789,1e-5 -3.12501,-1.55232 -3.125,-4.625 -1e-5,-1.00039 0.15227,-3.02107 0.4375,-6.09375 0.35652,-3.14411 0.53124,-5.69563 0.53125,-7.625 -1e-5,-3.85867 -0.57786,-7.12834 -1.71875,-9.84375 z m 20.3125,7.9375 c 0.0981,-0.0268 0.19211,-0.0179 0.28125,0 0.99827,0.85752 1.59857,1.55337 1.8125,2.125 l 0,20.15625 c -1.14091,-0.28582 -1.96962,-0.51333 -2.46875,-0.65625 -0.64177,-0.42874 -1.12104,-1.02646 -1.40625,-1.8125 -0.21393,-0.78602 -0.41109,-1.55771 -0.625,-2.34375 -0.49915,-1.57205 -0.72757,-4.79713 -0.65625,-9.65625 -1e-5,-0.42872 -0.0449,-1.15583 -0.1875,-2.15625 -0.14262,-0.85747 -0.14262,-1.47748 0,-1.90625 0.0713,-0.64309 0.36704,-1.14269 0.9375,-1.5 0.21391,-0.0714 0.63948,-0.54874 1.28125,-1.40625 0.37435,-0.48232 0.73711,-0.76335 1.03125,-0.84375 z m -29.03125,19.5 c -0.92703,0.42875 -5.21405,1.1246 -12.84375,2.125 -4.21102,0.49165 -7.21119,0.94607 -9.125,1.34375 -1.81421,1.81569 -3.75521,3.69134 -5.875,5.6875 0.0484,0.0566 0.11045,0.0976 0.15625,0.15625 l 23.3125,0 c 0.92693,-1.57206 1.85422,-3.14668 2.78125,-4.71875 1.06954,-1.92934 1.5937,-3.45042 1.59375,-4.59375 z"
         id="path3255" />
    </g>
  </g>
</svg>
